<?xml version="1.0" encoding="utf-8"?>
<!DOCTYPE svg PUBLIC "-//W3C//DTD SVG 20010904//EN" "http://www.w3.org/TR/2001/REC-SVG-20010904/DTD/svg10.dtd">
<svg version="1.0" xmlns="http://www.w3.org/2000/svg" width="2000px" height="1276px" viewBox="0 0 2000 1276" preserveAspectRatio="xMidYMid meet">
 <g fill="#000000">
  <path d="M0 1062.9 l0 -213.2 34.3 0.6 c18.8 0.4 36.9 1.1 40.2 1.7 3.3 0.5 11.2 1.4 17.5 1.9 10.9 0.9 27 4.6 33 7.6 1.4 0.7 7 2.5 12.5 4 19.3 5.3 36.1 10.4 44.5 13.5 4.7 1.7 11.2 4 14.4 5 7.8 2.5 42.2 19.7 51.1 25.5 11.4 7.5 22.5 12.5 30.1 13.6 3.8 0.6 8.6 1.7 10.7 2.5 2.7 1 8.1 1.4 19.2 1.4 17.4 0 20 -0.7 32.1 -8.1 13.6 -8.3 24.4 -12.7 38.4 -15.5 35.4 -7 65.6 -7.3 92 -0.8 8.1 2 20.5 7.9 37.5 17.9 12.3 7.2 14 8.6 31.2 25.8 l18.2 18.1 5.8 0.7 c10.2 1.2 23 3.7 25.3 4.9 1.3 0.7 5.1 3.8 8.5 7 5.7 5.3 6.8 5.9 12 6.5 5.2 0.7 6.4 1.4 11.5 6 l5.7 5.2 12.9 0.5 c8.9 0.4 14.2 1 16.9 2.2 2.6 1.1 8.1 6 16 14.1 l12.1 12.5 6.5 0 c4.9 0 7.5 0.6 11.1 2.5 2.6 1.4 5.5 2.5 6.5 2.5 1 0 3.3 0.9 5.1 2 1.8 1.1 4 2 4.8 2 0.9 0 5.7 1.8 10.8 4.1 7.4 3.3 10.5 5.5 16.7 11.5 4.2 4.1 8.2 7.4 8.8 7.4 0.5 0 3.2 1.9 5.9 4.3 5.9 5.3 17.1 11.7 20.4 11.7 1.5 0 3.9 1.6 6.3 4.1 2.2 2.2 5.4 4.9 7.2 6 4.6 2.9 16.4 5.9 23 5.9 4.1 0 6.7 0.6 8.8 2 2.6 1.7 4.7 2 15.8 2 10.3 0 13.4 0.3 16 1.8 2.6 1.4 7.2 1.8 26.2 2.5 30.7 1 42.7 1.1 50.7 0.2 5.9 -0.6 7.2 -0.5 10.4 1.4 2.8 1.7 5.3 2.2 11.8 2.2 4.4 0.1 11 0.2 14.6 0.2 9 0.2 13 -0.8 17.3 -4.4 3.3 -2.7 3.7 -3.6 3.7 -7.6 0 -4.4 0.4 -5 8.7 -13.7 14.8 -15.4 19.8 -18.3 26.9 -15.6 1.5 0.6 8.7 7.1 15.9 14.5 7.7 7.8 14 13.6 15.5 13.9 1.4 0.3 6.1 0.7 10.5 0.9 l8 0.4 6 -5.6 c3.4 -3.1 8.8 -6.9 12 -8.5 3.4 -1.6 8.3 -5.3 11.3 -8.3 5.6 -5.7 8.5 -7.3 13.4 -7.3 4 0 11 4.1 13.9 8.1 1.5 2.2 5.2 4.6 11.5 7.6 8.4 4 10 5.2 18.4 14.3 5.1 5.5 9.8 10 10.6 10 0.8 0 4.5 -4.2 8.4 -9.2 9.7 -12.9 11.9 -15.3 16.5 -17.6 2.2 -1.1 6 -4.1 8.5 -6.6 5 -5.2 12.7 -8.6 19.3 -8.6 5 0 13.2 3.7 16.6 7.4 3 3.2 4.1 3.3 7.2 0 7.4 -7.8 14.1 -8.1 24.3 -0.8 3.3 2.4 9.3 6.5 13.1 9 3.9 2.6 9.1 6.6 11.7 9 2.6 2.4 5.7 4.4 6.9 4.4 3.1 0 12.3 -6.2 20 -13.7 7.6 -7.2 16.5 -11.9 24.5 -12.9 4.8 -0.6 6.2 -0.3 12.8 2.9 4 1.9 8.9 3.8 10.7 4.2 1.9 0.4 4.7 1.8 6.2 3.1 1.6 1.3 3.3 2.4 3.9 2.4 1.9 0 10.1 -5.2 14.8 -9.3 5.6 -5 9.7 -6.7 15.5 -6.7 5.8 0 10.4 2.4 18.1 9.2 6.7 6 14.3 10.8 17.1 10.8 1 0 3.9 -2 6.3 -4.5 7.6 -7.8 10.5 -7.6 21 1.1 3 2.5 9.3 7.2 14 10.4 5.7 3.9 11.3 9.1 17 15.6 11.6 13.3 11.7 13.4 14.3 13.4 3.2 0 6.9 -4.3 10.6 -12.1 5.3 -11.2 14.4 -22.2 22.1 -26.7 2.5 -1.4 6.9 -4.8 9.7 -7.4 5.8 -5.4 12.9 -9 21.3 -10.7 10.1 -2.1 23.6 2 34.6 10.6 2.7 2.1 7.4 5.1 10.5 6.6 3.2 1.6 7.5 4.8 10 7.6 12.3 13.6 20.6 23.7 22.9 28 3.2 5.7 13.1 20.1 17.3 25 1.6 1.9 3.7 5.2 4.7 7.5 0.9 2.3 2.4 4.6 3.1 5.3 0.8 0.6 5 1.4 9.4 1.8 4.4 0.4 9.8 1.5 12 2.6 3.5 1.6 6.3 1.8 20.5 1.7 11.5 0 17.3 -0.5 19 -1.4 1.4 -0.7 5.8 -4 9.9 -7.2 4 -3.3 9.1 -6.5 11.2 -7.1 2.4 -0.7 4.9 -2.6 7 -5.3 1.8 -2.2 5.9 -6 9 -8.3 9.1 -6.7 22.3 -18.2 32.8 -28.5 5.9 -5.9 12.7 -11.5 17.6 -14.4 13.8 -8.4 15.1 -8.9 21.8 -8.1 3.7 0.4 7.8 0.2 10.8 -0.6 4.8 -1.2 5.2 -1.2 11.2 1.9 3.4 1.8 7.4 3.2 8.9 3.2 4.5 0 9.9 3.1 17.4 10 9.1 8.4 17 15 21 17.5 1.8 1.1 6 5.2 9.4 9 3.4 3.9 8.7 9.3 11.6 12.1 3 2.7 5.4 5.8 5.4 6.7 0 2.2 14.4 17.3 18.4 19.4 1.7 0.9 7.1 5.3 12.1 9.8 5.1 4.6 10.1 8.6 11.3 8.9 l2.2 0.7 0 53 0 52.9 -1000 0 -1000 0 0 -213.1z"/>
 </g>
</svg>