<svg xmlns="http://www.w3.org/2000/svg" viewBox="0 0 36 36" enable-background="new 0 0 36 36"><path fill="#fff" d="M31.8 0h-27.6c-2.3 0-4.2 1.9-4.2 4.2v27.7c0 2.2 1.9 4.1 4.2 4.1h27.7c2.3 0 4.2-1.9 4.2-4.2v-27.6c-.1-2.3-2-4.2-4.3-4.2zm-13.8 11.1c3.8 0 6.9 3.1 6.9 6.9 0 3.8-3.1 6.9-6.9 6.9s-6.9-3.1-6.9-6.9 3.1-6.9 6.9-6.9zm13.8 19.4c0 .8-.6 1.4-1.4 1.4h-24.9c-.8 0-1.4-.6-1.4-1.4v-15.3h3.1c-.1.9-.3 1.8-.3 2.8 0 6.1 5 11.1 11.1 11.1s11.1-5 11.1-11.1c0-1-.1-1.9-.4-2.8h3.1v15.3zm0-20.8c0 .8-.6 1.4-1.4 1.4h-4.2c-.8 0-1.4-.6-1.4-1.4v-4.2c0-.8.6-1.4 1.4-1.4h4.2c.8 0 1.4.6 1.4 1.4v4.2z"/></svg>