<svg xmlns="http://www.w3.org/2000/svg" viewBox="1365.5 3814.1 731.5 505.7" enable-background="new 1365.5 3814.1 731.5 505.7"><path d="M1487.2 3814.1c0 21.4 16.9 15.1 13.8 49.7-3.8 43.4-8.6 86.3-7.7 130 .3 12.9 10.7 57.2-8.3 57-27.3-.3-28.9-12.9-43.3-36.8-12.2 14.4-43.5 72.1-49.8 22.1-5.8-46.2-16-97.4-9-143.9 2.7-18.1-.7-37.6 3.4-55.5 3.5-15 23.2-7.7 17.6-2.1 6.1 60.6-3 123.9 9.1 183.7 12.4-9.3 16.2-40.1 37.1-32 16 6.2 7.4 15.7 17.9 32.5 1.2-10 2-20.1 2.4-30.1 4.7.1 5.5 3.5 2.4 10 6.8-10.3-5.3-193.1 13.4-183.6-.2-.7.1-1.1 1-1 .1 1.1-.2 1.4-.9 1.1-.1-.2.4-1.1.9-1.1 0 2.9-2.4 0 0 0zm-71.2 209.1c0-.5.5-.5.5-.9-.1 1.6-4.8 6.6-5.7 8.6.2.2 5.2-6.4 5.2-7.7zm60.7-167.9c-.3-.3-.5-.3-.5 0h.5zM1580.3 4160.1c13.8 13.8 29.3 132.4 12.1 150.2-26.9 27.8-24.6-108.2-24.6-115.3-33.7 2.4-58.2-12.5-58.5 27.1-.1 18.9 13.2 75.4-7.3 88-13.6 8.4-15.2-111.8-17.9-128.5 12.2-18.3 36.4-111.6 61.2-78.4 14.9 1.9 54.9 82.3 24.9 41.2-9 9 17 15.7 10.1 15.7 9.2 9.2-1.9 0 0 0zm-18.6-28.7c-6.7-6.7-11.2-22.8-21-25.3 1.5 1.3 20.8 25.3 21 25.3-.5-.5.5 0 0 0-2.2-2.1.5 0 0 0-6.7-6.7.5 0 0 0zm4.8 6.7c-5.1-5.1.9.1.9 2.4.1-1-.2-1.8-.9-2.4-1-1 .4 1 0 0-.8-.8.4 1 0 0zm-7.2 2.4c.5 0 .5.5.9.5-1.6-1.2-2.7-4-3.2-5.2l2.3 4.7c.5 0 0-1 0 0 .5 0 0-1 0 0zm2.4 3.3c-.5 0-.5-.5-.9-.5.9 0 2.5 2.9 2.5 2.9-.6-.7-1.1-1.5-1.6-2.4-.5 0 .5 1 0 0-.5 0 .5 1 0 0zm-6.7-12.4c-.5 0-.5-.5-.9-.5 0 0 4.8 4.4.9.5-.5 0 .5.5 0 0-.5 0 .5.5 0 0-.5 0 .5.5 0 0zm-37.8 43.5c15.9-2.1 31.8-2.9 47.8-2.4-8.1-14.5-16.6-28.9-25.3-43.1-8.9 14.6-16.4 29.7-22.5 45.5 2.4 0 1.8-4.6 2.3-5.1-3.2 5.8-3.3 6.7-.3 2.5 1-4.3.3-3.4-2 2.6 7.7 0 4.3-11.4 0 0 7.6 0 4.3-11.4 0 0zm55.5-13.8c-1.9 5.7 1.5 4.5 0 0-.5 1.4.5 1.4 0 0-.5 1.4.5 1.4 0 0-.5 1.4.5 1.4 0 0zm4.3 7.6zm-24.9-42.6zm17.2 29.7zm1.5 2.4s-.2-.1-.5 0h.5zm-5.8-9.1zm-11.9-21zM2072 3929.2c-18.4 2.9-37 .8-55.5 1.9-.2 17.8 1.8 41.6-1 58.7-1 5.9-1.3 57.1-9.1 57-8.6-13.3-20.4 13.5-15.2-20.8 5.6-36.8-1.4-72.9 1.2-109.2 2.1-29.4 17.9-47.2 36.2-72.6 22.4-31.2 35.1-.9 46 21.8 18.1 37.8 13.4 53.5 14.2 96.3.7 32.4 17.3 79.1-12.1 84.7-20.8-15.9-4.9-93.2-4.7-117.8-.8.1-2.1 1.6-.8 2.2 1.2-.4.8-.8.8-2.2-18 2.9 0 4.8 0 0-18 2.9 0 4.8 0 0zm-62.1 50.2c-.5 0-.5-.5-.9-.5 0-.1 3.4 1.6.9.5zm2.6-74.2c18.7 3.5 40.8-1.5 59.8-1.3-4.6-14.4-18.5-32.2-27.3-44.2-11.3 14.8-22.4 29.9-32.5 45.5.8 0 1.9-1.5 1.9-2.3-3.9 1.9 1.4-2.8-1.9 2.3 9.1 1.8 3.4-5.2 0 0 9 1.7 3.4-5.2 0 0zM1917.6 4098.9c18.2-18.2 29.3 9 42.3 23.6 24.1 27.3 16.2 66.2 16.3 102.1.1 22.3 12 83-9.4 89.1-19.5-2.8-10.9-117.6-8.6-131.5-18.9 0-59.2-12.1-58.5 14.9.4 13.6 4.8 53.5-1.7 62.7-6.9 9.9 4.8 27.9 1.4 39-12.4 39.6-24.6-34.5-24.9-40-3.7-64.4 1.5-120.6 41.9-161.1.8 1.5 1.3 1.6 1.7.2 0-.8-1.4-.5-1.7-.2.2-1 2.1 1.5 1.2 1.2 4-4.1-3.9-1.5 0 0zm37.7 58.8c-10-5.1-20.9-33.4-29.7-42.1-11.2 11.2-26.8 23.3-28.2 40.7 19.4 0 38.6 1.4 57.9 1.4.2.1-3.1.1-3.3.1 10.2-.8-4.6-.1 3.3-.1-1.8-.9-8.1 0 0 0zm-70.3-14.3c-1.5 0 0 5.6 0 0-.4 0 0 .4 0 0-.4 0 0 .4 0 0-.4 0 0 .4 0 0zm22 22h-.5.5zM1752.1 4308.9c-5.6-33.4-4.3-81.8-.3-115.7 3.8-31.7-9-72.3 10.3-98.2 31.8 5.4-8.5 61.7 29 63.7 35.7 1.9 39.3-13.1 35.1-53.8-2.4-7.7 19-22.1 18.1 8.7-1.7 54.9-6.6 113.8.7 168.3 1 7.1 4 28.2-7 31.2-18.3 5.1-12.4-36.7-12.7-47.2-.6-21.3-8.9-60.6 2.8-73.4-11.2-5.5-27.6-6.7-45-3.8 1.8.9 3.8 1.3 4.8 3.3-7.1-2-11.9.1-14.4 6.2-6.4 1.2 15.7 103.3-3.4 114.6-1.7 1-15.2-7.9-18.2-5 .7-.7-.5 20.1-1.3-8.2.3 1.5 1 8.7 1.5 9.3-3.3-19.7 2 1.9 0 0-3.3-19.7 2 1.9 0 0zm3.9-6.2zm3.3 1.4c0-.2-.2-.2-.5 0h.5zm73.2 4.8zM1944.7 3828.3c-4.3 12.4 9.2 9.8-4.6 26.7-10 12.3-38.4 38.9-39.6 55.2-1.3 16.6 46.1 128.6 36 133.8-35.1 18.3-41.3-79.1-49.2-98-28.6-68.9-18.6 96.9-30.4 96.9-26.3 0-8.4-134.9-5.4-160 .7-5.8-.5-59 13.2-59.2 25.1-.5 5.1 75.2 5 86.2 20-8.9 56.9-84.9 73.6-82.6l1.4 1c-.4 1.2-1.6-1.1-1.3-1 3.8 3-1.7-2 1.3 1-.5 1.4-2.9-2.9 0 0zM1629.3 4102.2c3.4-5.1 59.1-3.6 70.9-1.4 5.2.9 25.4 12.2 18.1 21.5-19.3 2.2-38.7-.1-57.9 2.9 3.5-.3 6.3.8 8.6 3.3-34.4 22.8-14 112.2-12.3 147.5 1.3 27.4 32.8 7 53 15.5 23.9 10-22.5 19.3-28.2 19.3 9.1 9.1-31.8 6.6-33.3 6.5-25.7-1.8-16.3-53-18.8-68.2-6.4-38.6 10.3-119 .2-143.7-1.8-8.6-.3 5.5-.3-3.2 1.9-2.8 0 8.6 0 0 1.9-2.8 0 8.6 0 0zM1404.3 4295.5c-2.8-30.6-1.8-61.7 2.4-92.8-20.5-23.4-41.6-36.2-39.2-67.7 1.5-19 13.6-58.6 20.8-24.8 2.8 13.2-2.3 25.7-2.3 38.9 11.4 0 32.1 32 37.3 40.2 16.3-24.9 21.8-34.8 24.3-60.8 1.4-14.7-9.4-31 13.7-31.4 27.4-.5 13.2 58.5 4.7 69.5-28.2 36.5-42.8 56.5-37.7 106 5.9 56.9-36.5 30.4-28 19.5 3.8 1.7 5.2 4.5 4.4 8.6 1.8-7-1.1-5.6-.4-5.2-.5-5.3 2.4 1.4 0 0-.5-5.4 2.4 1.4 0 0-.6-6.3 2.4 1.4 0 0zM2061 4232.3c-14 14 17.7 68-6.2 76.5-41.4 14.7-10.7-104.7-35.3-128.7-19.3-18.8-25.8-45.2-19.3-72.6 9.7-41.6 19.9 32.7 19.5 30.3 5.4 36.4 34.3 43.5 52.7 16.7 17.6-25.5-19.1-48.1 23.5-53.8 0 12 6.6 50-1.6 61.1-19.7 26.6-33.3 35.6-33.3 70.5-.5.5-.2-3.9-.1-3.7 1.2 11.7.1-8.4.1 3.7-4.3 4.4 0-9.1 0 0-3.2 3.2 0-9.1 0 0zm-24.4-59.8c.5 0 .5.5.9.5-1.6-.1-4.1-3.3-4.9-4.2 1.4 1.3 2.7 2.5 4 3.7.5 0-.4-.4 0 0 .5 0-.4-.4 0 0zm-32-15.7c.8.8 3 0 0 0zm53.6 102.3c-.3-.3-.5-.3-.5 0 .2.2.5.2.5 0zm29.6-104.3c0-.2-.2-.2-.5 0h.5zM1639.4 4043.7c-31.2 24.9-22.5-106.3-22.5-130.1-10.3-1.8-2-33.1-2.4-37.2-1.7-16.8-.5-33.4-.9-50-.4-14.9 22.3-7.8 24.3 4 3 17.4-3.8 43.3-5.6 59.6-4.6 43.2 1.3 92.2 10.2 134.5-1.1 8.7 63.1-8.9 56.7 12.5-5 16.7-53.8 7.6-56.8 7.6 7-.5 6.1-.7-3-.9-2.4 1.9 18.2 0 0 0-2.4 1.9 18.2 0 0 0-2.4 1.9 18.2 0 0 0zM1758.7 3999.3c-34.5 16.8 55.6 37.6 54.6 34.6 21.2 11-55.5 13.1-62.8 12.3-27.8-3.2-13.4-78.7-13-103.3.4-25.7-9.5-96.1 5.2-117.1 4.4-1.8 6.6-.1 6.7 5 4.3-2.1.7-6.7 6.8-6.6 15.8 32 2.9 126.7 2.5 175.1-1 .5 0-1.9 0 0-1 .5 0-1.9 0 0zm-4.8-127.8c.4.5 0 .5 0 0zM1552.4 3821.3c.7 1 27.9 23.4 13.9 23.4 8.7 19.6-3.2 56.4-2.8 77.4.2 13 11.1 131.3-2.1 128.7-31-6-22.6-229.5-9-229.5 1 1.4-.4 0 0 0 1 1.4-.4 0 0 0zm9.6 36.3c1.4-3.3 1.4-7.2.5-11 0 3.9 0 7.2-.5 11z"/></svg>