<svg xmlns="http://www.w3.org/2000/svg" viewBox="0 0 4141.4 3142.8" enable-background="new 0 0 4141.4 3142.8"><path d="M662.9 0v50.5c20.8 11.9 38.6 20.8 56.5 32.7 5.9 0 17.8 3 29.7 3 0 38.6 5.9 74.3-5.9 113 3 5.9 8.9 11.9 14.9 20.8-5.9 38.6-5.9 80.3-14.9 118.9v14.9c0 38.6-5.9 74.3-14.9 110v3c-3 38.6-3 74.3-8.9 113-5.9 44.6-3 86.2-5.9 127.8 0 17.8-8.9 35.7-3 56.5 3 17.8 0 35.7-3 53.5-11.9 107-8.9 214-5.9 324 0 74.3 3 145.7 8.9 220 0 20.8 11.9 41.6 0 62.4-3 3 3 11.9 5.9 20.8-8.9 8.9-14.9 17.8-23.8 26.8-23.8-8.9-50.5 11.9-68.4-11.9-32.7-5.9-59.4 0-83.2 23.8-38.6-8.9-47.6-38.6-56.5-68.4-5.9-20.8-11.9-35.7-29.7-47.6-14.9-11.9-26.8-29.7-32.7-47.6-5.9-14.9-14.9-23.8-20.8-38.6-5.9-11.9-11.9-23.8-20.8-38.6l-95.1 115.9c-8.9 41.6-44.6 65.4-62.4 101.1 0 8.9 3 17.8 0 23.8-3 11.9-14.9 8.9-23.8 11.9-14.9 3-26.8 8.9-38.6 11.9l-77.3-17.8c-5.9-8.9-14.9-17.8-23.8-26.8 5.9-8.9 11.9-17.8 14.9-23.8-3-23.8-8.9-47.6-11.9-71.3-3-20.8-5.9-41.6-5.9-65.4-3-20.8-3-44.6-5.9-65.4-5.9-35.7-3-71.3-11.9-107v-11.9c-5.9-44.6-8.9-95.1-11.9-142.7-3-23.8-5.9-47.6-5.9-74.3-3-23.8-3-47.6-5.9-71.3-5.9-41.6 0-83.2-3-124.8 0-5.9 5.9-17.8-5.9-20.8v-157.5c3-5.9 5.9-11.9 5.9-17.8v-101.1c0-11.9 5.9-26.8 3-35.7-8.9-38.6 0-80.3 11.9-118.9 5.9-26.8 8.9-53.5 8.9-80.3v-35.7c0-17.8 8.9-35.7 23.8-41.6 32.7-11.9 65.4-17.8 98.1 0v17.8c-5.9 8.9-8.9 11.9-11.9 14.9 3 29.7 8.9 56.5 11.9 83.2 3 44.6 3 89.2 5.9 133.8 5.9 110-3 217 5.9 327 5.9 74.3 0 148.6 0 220 0 26.8-3 50.5 3 74.3 5.9 26.8 5.9 50.5 5.9 74.3 0 41.6 3 83.2 14.9 121.9 5.9 17.8 14.9 38.6 0 56.5-3 3 0 5.9 0 11.9 3 11.9 5.9 23.8 8.9 38.6 11.9-8.9 20.8-14.9 29.7-29.7 14.9-32.7 35.7-62.4 56.5-92.1 20.8-26.8 44.6-53.5 68.4-80.3 8.9 3 20.8 3 32.7 5.9 8.9-3 14.9-5.9 23.8-11.9 8.9 5.9 20.8 11.9 23.8 14.9 20.8 5.9 35.7 8.9 50.5 11.9 11.9 3 20.8 5.9 20.8 17.8s-8.9 17.8-20.8 17.8c-3 0-3 3-5.9 3 20.8 47.6 32.7 98.1 62.4 145.7 0-20.8 3-35.7 0-50.5-5.9-14.9 0-26.8 3-35.7 8.9-32.7 14.9-65.4 11.9-101.1 3 0 8.9 0 14.9 3v59.4c5.9-8.9 5.9-14.9 5.9-23.8-3-44.6-5.9-86.2-5.9-130.8 0-26.8-8.9-53.5 0-80.3 0-3 0-5.9-3-8.9-8.9-20.8-5.9-38.6-3-59.4 0-3 3-8.9 3-8.9-14.9-23.8 0-47.6-5.9-71.3-3-23.8-3-50.5 0-74.3 5.9-41.6 5.9-83.2 5.9-121.9 0-8.9 3-17.8 0-23.8-14.9-17.8 3-35.7-5.9-53.5 14.9-38.6 3-80.3 5.9-118.9 0-8.9-3-20.8 3-26.8 5.9-11.9 3-17.8 0-29.7-5.9-26.8-5.9-53.5-8.9-77.3 8.9 0 17.8-3 20.8-3 5.9-26.8 11.9-50.5 17.8-74.3 3-17.8 8.9-35.7 8.9-56.5 0-35.7-3-71.3 8.9-104 14.6-.3 26.5-.3 41.4-.3zm-442.9 1299c0-3 3-3 3-5.9-.1 2.9-.1 5.9-3 5.9l-5.9 5.9c-11.9 5.9-20.8 14.9-20.8 29.7-3 3-3 5.9-5.9 11.9 0 0 3 0 3 3 0-3 0-8.9 3-11.9 11.9-5.9 20.8-14.9 20.8-29.7 2.8-3 5.8-6 5.8-8.9zm377.5-1043.4c-3-3-3 0-3 0h3zM1334.6 2150c3 3 32.7 41.6 35.7 41.6s3 3 5.9 3c3 0 3 3 8.9 8.9 3 35.7 3 77.3 5.9 118.9 5.9 38.6 3 80.3 11.9 118.9 3 8.9 3 17.8 0 23.8-8.9 50.5 3 101.1 0 151.6 0 20.8 3 44.6 5.9 65.4 3 20.8 3 44.6 5.9 65.4 3 38.6 17.8 77.3 5.9 118.9-3 8.9 0 23.8 3 32.7 3 11.9 5.9 20.8 14.9 38.6 0 8.9 3 23.8-11.9 38.6-5.9 5.9-8.9 14.9-3 26.8 3 5.9-3 11.9-3 20.8 3 3 5.9 8.9 11.9 11.9v5.9c-5.9 8.9-8.9 20.8-14.9 29.7-5.9 8.9-11.9 17.8-23.8 23.8-14.9 5.9-23.8 20.8-35.7 32.7-14.9 0-14.9-14.9-17.8-26.8-29.7 0-44.6-20.8-56.5-44.6-3-5.9-5.9-17.8-3-23.8 11.9-29.7 0-59.4 5.9-86.2-8.9-5.9-14.9-11.9-20.8-14.9v-8.9c8.9-17.8 14.9-29.7 8.9-53.5-8.9-26.8-8.9-56.5-8.9-83.2 0-32.7-3-65.4 0-101.1 3-62.4-11.9-124.8-8.9-187.3-11.9-32.7-8.9-65.4 0-98.1 3-8.9 0-17.8 0-32.7-41.6 3-80.3-5.9-121.9 5.9h-5.9c-53.5 3-104 5.9-157.5 5.9h-77.3c0 8.9-3 17.8-3 23.8 0 59.4-3 121.9 0 181.3 5.9 77.3 5.9 154.6 5.9 228.9 14.9 35.7 3 77.3 11.9 115.9 5.9 20.8-3 44.6-5.9 65.4 0 8.9-3 14.9-5.9 23.8-5.9 14.9-8.9 32.7-17.8 44.6-11.9 14.9-32.7 20.8-50.5 29.7-8.9 5.9-20.8 5.9-35.7 5.9-5.9-11.9-11.9-20.8-14.9-32.7-8.9-29.7-17.8-59.4-14.9-89.2 3-38.6 0-77.3 0-118.9 0-92.1 11.9-184.3 5.9-276.4v-35.7c-5.9-11.9-11.9-17.8-11.9-47.6-3-47.6-3-92.1 0-139.7 0-14.9 5.9-29.7 8.9-41.6-11.9-8.9-26.8-14.9-29.7-32.7 11.9-17.8 23.8-38.6 38.6-56.5 38.6-44.6 53.5-101.1 80.3-148.6 8.9-17.8 17.8-38.6 23.8-56.5 23.8-50.5 44.6-101.1 68.4-148.6l44.6-95.1c5.9-14.9 11.9-26.8 14.9-44.6 8.9 0 17.8 3 29.7 3 5.9-14.9 20.8-8.9 35.7-8.9 14.9 20.8 26.8 44.6 44.6 68.4 23.8 3 35.7 20.8 50.5 38.6 5.9 8.9 11.9 17.8 17.8 26.8 8.9 14.9 20.8 29.7 41.6 35.7 8.9 11.9 14.9 23.8 20.8 32.7-3 5.9-3 8.9-8.9 14.9 5.9 8.9 14.9 20.8 23.8 26.8 11.9 5.9 14.9 11.9 20.8 20.8 20.8 38.6 44.6 77.3 68.4 113v38.6c-5.7 9.1-11.6 6.1-17.6 6.1-14.9-35.7-38.6-65.4-62.4-98.1-3 3-5.9 5.9-5.9 8.9 14.9 23.8 32.7 50.5 47.6 77.3 2.9 5.9 8.9 11.9 20.7 11.9zm-115.9-178.4l-5.9-5.9c-3-5.9-5.9-8.9-5.9-14.9l-5.9-5.9-5.9-5.9-5.9-5.9c0-11.9-3-17.8-14.9-20.8l-5.9-5.9c-3-5.9-5.9-8.9-5.9-14.9l-5.9-5.9c-11.9-11.9-11.9-17.8-14.9-20.8l-5.9-5.9c-5.9-26.8-23.8-38.6-47.6-44.6l47.6 44.6 5.9 5.9c3 5.9 5.9 8.9 5.9 14.9l5.9 5.9c3 5.9 5.9 8.9 5.9 14.9l5.9 5.9c0 11.9 3 17.8 14.9 20.8l5.9 5.9 5.9 5.9 5.9 5.9c3 5.9 5.9 8.9 5.9 14.9 11.9 5.9 11.9 8.9 14.9 11.8 3 0 3 3 5.9 3-2.9-3-2.9-3-5.9-3zm29.7 41.6l-5.9-5.9c0-3 0-8.9-3-11.9-3 0-3 0-5.9 3 3 3 3 5.9 5.9 11.9 3-3 6 0 8.9 2.9 3 5.9 5.9 8.9 5.9 14.9 3 0 3 3 5.9 3-3 0-3-3-5.9-3-2.9-5.9-2.9-8.9-5.9-14.9zm-44.5 14.9c3 0 3 3 5.9 3 0 0-3-3-5.9-3-3-5.9-5.9-8.9-5.9-14.9-3-5.9-5.9-8.9-5.9-14.9-3 0-3-3-5.9-3 3 0 3 3 5.9 3 3 5.9 5.9 8.9 5.9 14.9 2.9 6 5.9 9 5.9 14.9zm14.8 20.8c-3 0-3-3-5.9-3 2.9 0 5.9 3 5.9 3 3 5.9 5.9 8.9 5.9 14.9 3 0 3 3 5.9 3-3 0-3-3-5.9-3 .1-6-2.9-8.9-5.9-14.9zm-41.6-77.3c-3 0-3-3-5.9-3 2.9.1 2.9.1 5.9 3 0 3 0 8.9 3 11.9 3 0 3 0 5.9-3-5.9-2.9-5.9-5.9-8.9-8.9zm-234.8 270.5c14.9 0 32.7 3 47.6 0 26.8-8.9 50.5-5.9 77.3-5.9h95.1c26.8 0 50.5-5.9 77.3-8.9-5.9-11.9-5.9-23.8-11.9-32.7-14.9-26.8-23.8-59.4-47.6-80.3-26.8-23.8-47.6-50.5-59.4-86.2-8.9-20.8-23.8-41.6-38.6-68.4-17.8 29.7-35.7 53.5-50.5 80.3-38.8 62.4-62.6 130.8-89.3 202.1zm344.8-86.2c-3 8.9-5.9 11.9-11.9 20.8h20.8l-8.9-20.8zm26.7 47.6h3v-23.8h-3v23.8zm-154.5-264.6zm107 184.3zm8.9 14.9c-3-3-3 0-3 0h3zm-35.7-56.5zm-74.3-130.8zM3923.8 707.4c-17.8 3-29.7 3-44.6 5.9-8.9 0-17.8 3-26.8 3h-136.7c-44.6 0-92.1 3-136.7 5.9 0 11.9 5.9 23.8 3 29.7-8.9 20.8-5.9 38.6-5.9 59.4v145.7c0 23.8-5.9 47.6 0 71.3 3 23.8 0 50.5 0 77.3-8.9 3-17.8 8.9-29.7 14.9 14.9 98.1 5.9 199.2 8.9 300.2-5.9 8.9-11.9 20.8-32.7 20.8-5.9-8.9-14.9-17.8-26.8-29.7-17.8 3-29.7 23.8-53.5 11.9-5.9-17.8-20.8-32.7-20.8-53.5 0-11.9-5.9-23.8-3-35.7 8.9-17.8 5.9-38.6 5.9-56.5v-425.1l-29.7-17.8c5.9-14.9 11.9-26.8 14.9-38.6-3-11.9-8.9-23.8-11.9-38.6 3-5.9 8.9-20.8 14.9-23.8 23.8-11.9 17.8-32.7 17.8-53.5 0-5.9-5.9-11.9-5.9-14.9 11.9-23.8 3-50.5 5.9-74.3 3-17.8 5.9-38.6 11.9-59.4-5.9-3-11.9-8.9-17.8-14.9v-5.9c32.7-44.6 71.3-89.2 95.1-139.7 3-5.9 8.9-14.9 14.9-20.8 11.9-8.9 17.8-23.8 26.8-35.7 29.7-44.6 65.4-83.2 89.2-130.8l8.9-8.9c5.9-5.9 14.9-11.9 20.8-20.8 5.9-11.9 8.9-26.8 23.8-35.7 11.9-8.9 23.8-17.8 35.7-29.7 8.9 3 17.8 8.9 23.8 11.9l47.6-11.9c5.9 5.9 14.9 11.9 17.8 17.8-3 17.8-5.9 32.7-5.9 44.6 26.8 53.5 68.4 95.1 104 139.7 11.9 14.9 20.8 29.7 26.8 50.5 5.9 23.8 20.8 44.6 32.7 65.4 3 3 5.9 5.9 5.9 8.9 17.8 38.6 47.6 68.4 71.3 107-5.9 8.9-8.9 14.9-14.9 23.8-5.9 11.9-11.9 23.8-11.9 35.7-3 14.9-3 32.7-5.9 47.6-3 17.8 3 35.7 3 56.5l3 32.7v83.2c0 14.9 3 29.7-5.9 44.6-5.9 11.9 11.9 26.8 0 38.6 8.9 17.8 0 35.7 0 53.5 0 17.8-3 38.6 0 56.5 8.9 44.6 3 89.2 5.9 133.8 0 17.8 5.9 35.7 5.9 56.5 3 17.8 3 35.7 5.9 56.5 5.9 26.8 3 56.5 3 86.2 0 29.7 0 56.5 14.9 80.3-5.9 17.8-8.9 35.7-26.8 47.6-8.9-8.9-20.8-17.8-32.7-26.8l-47.6 8.9c-23.8-17.8-32.7-35.7-29.7-68.4 3-44.6-8.9-92.1-8.9-136.7-3-41.6 3-86.2-3-127.8-8.9-65.4-3-130.8-5.9-196.2 0-14.9-3-32.7 5.9-47.6 3-3 0-8.9 0-14.9-3-23.8-8.9-47.6-5.9-68.4 11.7-20.7 11.7-41.5 11.7-71.3zm-383.4 315.1c-3 0-3-3-5.9-3-.1.1 2.9.1 5.9 3 3 0 3 3 5.9 3-3-3-5.9-3-5.9-3zm11.9-460.7c8.9 0 14.9 3 20.8 3 32.7 0 68.4-3 101.1-5.9 68.4-5.9 139.7-5.9 208.1-8.9h41.6c-8.9-26.8-23.8-41.6-35.7-59.4-29.7-41.6-56.5-86.2-89.2-124.8-11.9-14.9-23.8-32.7-17.8-50.5-11.9-14.9-20.8-26.8-29.7-38.6-8.9 11.9-17.8 23.8-26.8 35.7-8.9 8.9-20.8 17.8-26.8 29.7l-92.1 133.8c-17.9 23.5-32.7 53.2-53.5 85.9zM3088.4 1769.5c14.9-14.9 29.7-29.7 41.6-44.6 14.9-3 29.7-8.9 47.6-11.9 5.9 8.9 11.9 17.8 14.9 29.7 5.9-3 11.9-3 14.9-5.9 17.8 8.9 17.8 26.8 17.8 41.6 41.6 56.5 95.1 104 142.7 154.6 8.9 8.9 17.8 20.8 23.8 35.7 8.9 17.8 23.8 35.7 35.7 53.5 8.9 11.9 20.8 26.8 29.7 38.6 5.9 5.9 8.9 17.8 11.9 26.8-8.9 5.9-14.9 11.9-20.8 14.9 0 8.9 5.9 17.8 3 23.8-20.8 23.8-14.9 53.5-11.9 77.3 5.9 29.7 3 59.4 5.9 89.2 0 23.8-3 47.6 5.9 71.3 3 8.9 0 23.8-3 32.7-8.9 17.8-8.9 29.7-3 50.5 5.9 29.7 5.9 62.4 8.9 95.1 0 29.7 3 56.5 0 86.2-5.9 38.6-8.9 74.3-5.9 113 5.9 44.6 5.9 92.1 5.9 136.7 0 8.9 3 17.8 5.9 26.8 14.9 29.7 3 56.5-14.9 80.3 17.8 3 26.8 17.8 35.7 32.7-8.9 23.8-20.8 47.6-26.8 65.4-23.8 8.9-38.6 14.9-59.4 20.8-20.8-3-20.8-32.7-41.6-38.6v-29.7c0-35.7 0-71.3-11.9-107v-11.9c-3-53.5-3-110-8.9-163.5-5.9-68.4-8.9-133.8-5.9-202.1 5.9-71.3 5.9-142.7 5.9-217 0-14.9 5.9-29.7 8.9-47.6h-303.2c-20.8 0-38.6 3-62.4 5.9v32.7c0 62.4 5.9 124.8-3 184.3-5.9 56.5-3 113-5.9 169.4 0 26.8 5.9 56.5 8.9 80.3-5.9 8.9-11.9 14.9-14.9 20.8 3 47.6 3 95.1 5.9 139.7 3 23.8 14.9 47.6 20.8 71.3-5.9 17.8-11.9 32.7-20.8 53.5-8.9 5.9-26.8 11.9-38.6 17.8-14.9 5.9-26.8 14.9-41.6 20.8-20.8-14.9-29.7-38.6-32.7-65.4-5.9-44.6-3-92.1-14.9-136.7-3-8.9 0-17.8 0-29.7v-324c0-56.5 5.9-115.9 8.9-172.4 0-11.9-3-23.8-3-38.6v-104c0-8.9 3-20.8-3-26.8-8.9-14.9-3-26.8 3-38.6 8.9-14.9 8.9-26.8 3-44.6-3-8.9-3-20.8 3-26.8 14.9-11.9 3-32.7 20.8-41.6-3-3-3-8.9-5.9-14.9 5.9-3 11.9-3 14.9-3 14.9-23.8 26.8-47.6 41.6-65.4 26.8-32.7 47.6-68.4 71.3-104 14.9-23.8 29.7-44.6 47.6-65.4 11.9-9 23.8-20.9 47.6-12zm234.8 365.6c3 0 3 3 5.9 3-2.9 0-2.9-3-5.9-3 3-17.8-14.9-23.8-20.8-35.7-11.9-23.8-23.8-50.5-41.6-74.3l-101.1-130.8-20.8-20.8c-8.9 8.9-14.9 17.8-20.8 26.8-23.8 23.8-47.6 44.6-68.4 68.4-11.9 11.9-23.8 23.8-29.7 38.6-5.9 11.9-11.9 20.8-20.8 32.7-29.7 38.6-32.7 50.5-35.7 86.2l35.7-3c56.5 3 115.9-3 172.4 5.9 50.6 9 101.1 6 151.6 6zm-436.9-89.2h-5.9c0 5.9 3 8.9 3 14.9h3c-.1-5.9-.1-11.9-.1-14.9zm136.7 136.8c0-3-3-3 0 0-3-3-3 0-3 0h3zM2184.8 3074.4c-3-17.8-5.9-29.7-5.9-44.6 0-11.9 3-23.8 3-32.7v-249.7c0-41.6 5.9-80.3 11.9-121.9 5.9-35.7 5.9-74.3-3-110-3-8.9-3-17.8-3-26.8v-335.9l5.9-118.9c0-8.9 0-20.8-3-26.8-17.8-32.7-11.9-68.4-5.9-104 3-8.9 3-14.9 3-23.8v-68.4c11.9-11.9 20.8-26.8 35.7-29.7l23.8-35.7 53.5 11.9c14.9 17.8 20.8 35.7 8.9 59.4-5.9 8.9-3 20.8 5.9 29.7 17.8 23.8 20.8 50.5 14.9 77.3-3 17.8 0 38.6 0 56.5v160.5h50.5c11.9 0 26.8 3 38.6 5.9 5.9 0 8.9 3 14.9 0 23.8-8.9 47.6 5.9 71.3-5.9 14.9-5.9 35.7 0 56.5 0 14.9 5.9 23.8 32.7 47.6 14.9-5.9-23.8 11.9-50.5 3-77.3 11.9-23.8 5.9-50.5 5.9-77.3 0-38.6 3-74.3 14.9-110 3-8.9 0-20.8 0-32.7 0-17.8 0-35.7 14.9-50.5-5.9-5.9-11.9-11.9-17.8-20.8l11.9-23.8c20.8-3 38.6-3 59.4-5.9 14.9-3 11.9-26.8 35.7-23.8 14.9 14.9 17.8 35.7 17.8 56.5 0 23.8 3 47.6 0 71.3v151.6c0 17.8-5.9 32.7-3 50.5 3 17.8-3 38.6-3 56.5 0 17.8-3 35.7 0 53.5 14.9 65.4 8.9 133.8 5.9 199.2-8.9 118.9-3 237.8-5.9 356.7 0 50.5 0 101.1 8.9 151.6 5.9 32.7 5.9 65.4 5.9 98.1 0 23.8 5.9 50.5-11.9 71.3 5.9 20.8-5.9 35.7-17.8 47.6-20.8 3-38.6 5.9-59.4 11.9-8.9-11.9-17.8-23.8-23.8-32.7-17.8-107-3-208.1-11.9-312.1-5.9-92.1-3-184.3-5.9-273.5 0-23.8-5.9-47.6-8.9-71.3-5.9-5.9-11.9-8.9-20.8-17.8 17.8-14.9 32.7-26.8 35.7-50.5 5.9 3 11.9 3 14.9 5.9 0-3 3-5.9 3-5.9-11.9-5.9-14.9-20.8-14.9-35.7-32.7 3-65.4-8.9-95.1 11.9-5.9 3-14.9 3-20.8 3-32.7 0-65.4 3-95.1-5.9-17.8-3-35.7 0-53.5 3 5.9 3 11.9 3 14.9 5.9 5.9 3 11.9 8.9 14.9 14.9-8.9 8.9-44.6 11.9-65.4 5.9-3 5.9-3 11.9-8.9 17.8l-14.9 14.9c11.9-3 17.8-3 26.8-5.9-5.9 11.9-11.9 17.8-17.8 26.8 5.9 8.9 11.9 20.8 20.8 35.7h-23.8c-3 47.6-5.9 95.1-5.9 142.7-3 68.4-5.9 133.8-8.9 202.1 5.9 8.9 11.9 14.9 14.9 20.8 0 17.8 5.9 35.7-8.9 44.6 0 11.9 3 17.8 3 26.8s-3 17.8 3 23.8c17.8 32.7 8.9 62.4 0 95.1-3 17.8-3 38.6-3 56.5 0 17.8-3 32.7-14.9 44.6-29.7 11.9-32.7-11.9-38.6-29.7-14.9-5.9-23.8-5.9-35.7 3-21.2 14.7-33.1 11.7-45-.2zm23.8-38.6zm20.8 8.9c-3-3-3 0-3 0h3zm454.7 29.7zM3281.8 86.2c-3 8.9-8.9 17.8-11.9 29.7l11.9 8.9c14.9 14.9 20.8 23.8 11.9 41.6-5.9 11.9-8.9 26.8-11.9 38.6-3 17.8-14.9 32.7-26.8 47.6l-35.7 44.6-124.8 166.5-77.3 115.9c-5.9 8.9-11.9 20.8-5.9 29.7 17.8 32.7 20.8 71.3 32.7 107 17.8 47.6 29.7 95.1 44.6 142.7 11.9 41.6 20.8 80.3 26.8 121.9 0 5.9 3 8.9 3 11.9 23.8 44.6 32.7 95.1 44.6 145.7 17.8 80.3 47.6 157.5 86.2 231.9 5.9 8.9 8.9 17.8 14.9 29.7v8.9l-17.8 20.8c-17.8 0-23.8-8.9-26.8-17.8l-20.8 17.8c-20.8-11.9-44.6-23.8-65.4-38.6-8.9 3-17.8 8.9-29.7 11.9-26.8-14.9-32.7-38.6-35.7-62.4-11.9-56.5-23.8-110-41.6-166.5-17.8-53.5-35.7-107-53.5-157.5-11.9-32.7-17.8-68.4-23.8-104-5.9-26.8-8.9-53.5-14.9-83.2 0-5.9-3-11.9-5.9-14.9-8.9-14.9-14.9-32.7-14.9-50.5 0-17.8-5.9-32.7-11.9-50.5-29.7 5.9-56.5 8.9-86.2-3-3 5.9-8.9 11.9-5.9 14.9 8.9 11.9-3 23.8-3 32.7 0 32.7-5.9 65.4-11.9 98.1-5.9 20.8-3 41.6 0 62.4 5.9 44.6 8.9 53.5 0 98.1-3 8.9 0 17.8 0 23.8v121.9c0 26.8-8.9 56.5-5.9 83.2 5.9 41.6 3 83.2 11.9 121.9 5.9 20.8 0 38.6-17.8 56.5-26.8-3-56.5-8.9-83.2 8.9l-26.8-26.8v-243.8c0-26.8 3-53.5 8.9-80.3 3-14.9 3-29.7 5.9-44.6 14.9-151.6 3-306.2 8.9-457.8 0-17.8 5.9-35.7 5.9-50.5 3-14.9-3-32.7 5.9-47.6 3-3 0-5.9 0-11.9 3-50.5 5.9-104 8.9-154.6l3-29.7c0-17.8 5.9-32.7 3-50.5-11.9-44.6 5.9-83.2 17.8-124.8 0-5.9 3-11.9 5.9-17.8 3-8.9 8.9-17.8 14.9-23.8 11.9-11.9 26.8-5.9 41.6-11.9 11.9-5.9 8.9 20.8 20.8 8.9 3 17.8 20.8 26.8 38.6 38.6 11.9 26.8-3 56.5 0 86.2 0 11.9-5.9 23.8-5.9 38.6 0 29.7-5.9 59.4-11.9 89.2 0 3 0 5.9-3 8.9-3 32.7 0 65.4-8.9 98.1-8.9 38.6 0 77.3-11.9 115.9-5.9 17.8 0 38.6 0 56.5 32.7-14.9 32.7-14.9 65.4-5.9 26.8-35.7 56.5-68.4 80.3-104 35.7-53.5 68.4-110 107-166.5 32.7-47.6 62.4-95.1 98.1-142.7 20.8-29.7 44.6-59.4 68.4-89.2 5.9-20.8 23.7-20.8 41.6-3zM1545.7 1790.3c11.9-17.8 26.8-11.9 41.6-11.9l3 17.8h5.9c14.9-8.9 26.8-11.9 44.6-8.9h270.5c35.7 0 71.3 5.9 110 5.9 8.9 0 20.8 5.9 23.8 11.9 20.8 23.8 41.6 47.6 59.4 74.3 8.9 11.9 5.9 20.8-5.9 35.7-26.8 3-56.5 5.9-86.2 5.9h-154.6c-38.6 0-80.3 5.9-118.9 11.9l53.5 11.9v8.9c-8.9 5.9-17.8 8.9-23.8 14.9-11.9 11.9-14.9 35.7-38.6 38.6-3 0 5.9 8.9-3 11.9-3 0 0 11.9 0 17.8 0 3-8.9 3-8.9 11.9-5.9 38.6-14.9 77.3-8.9 118.9-8.9 11.9-20.8 23.8-11.9 41.6 3 5.9-3 17.8-5.9 26.8-3 5.9-3 11.9 0 20.8 3 11.9 0 23.8 0 32.7 0 17.8-3 35.7 0 53.5 3 26.8 8.9 56.5 11.9 83.2l-5.9 11.9c-3 23.8-5.9 50.5-3 74.3 3 23.8 0 50.5 11.9 77.3 5.9 8.9 5.9 23.8 3 35.7-8.9 32.7-8.9 65.4 0 98.1v11.9c3 50.5 3 74.3 8.9 124.8 3 29.7 0 62.4 8.9 95.1h246.7c23.8 0 50.5 3 74.3 8.9 8.9 3 17.8 11.9 26.8 17.8-11.9 23.8-23.8 44.6-32.7 68.4 3 3 8.9 5.9 14.9 11.9-3 5.9-5.9 14.9-8.9 23.8h-178.3c5.9 5.9 11.9 8.9 14.9 11.9-5.9 23.8-26.8 11.9-38.6 17.8-8.9 17.8-29.7 17.8-47.6 26.8-20.8-5.9-41.6-8.9-65.4-8.9-26.8 3-56.5-5.9-89.2-8.9-3-5.9-11.9-17.8-20.8-29.7-29.7 0-47.6-17.8-59.4-44.6-3-5.9-5.9-11.9-5.9-14.9v-95.1c11.9-14.9-3-35.7 5.9-53.5 5.9-14.9 3-35.7-5.9-50.5-3-5.9 0-14.9 0-20.8 0-23.8 0-47.6-5.9-74.3-14.9-71.3-20.8-115.9-14.9-187.3 8.9-98.1 5.9-196.2 3-294.3 0-59.4-5.9-118.9-5.9-175.4 0-14.9 5.9-32.7 3-47.6-5.9-17.8 5.9-29.7 8.9-47.6 3-8.9 3-17.8 3-26.8-3.4-65.2-3.4-118.7-3.4-172.2zM240.8 2991.2c-3-32.7 0-65.4 3-101.1 3-17.8-3-35.7-3-53.5-17.8-14.9-17.8-14.9 0-29.7-3-3-5.9-5.9-11.9-8.9v-172.4c0-20.8 5.9-44.6 8.9-68.4 0 0 3-3 5.9-3-3-47.6 5.9-95.1 11.9-139.7-62.4-71.3-121.9-142.7-187.3-220-11.9-3-23.8-8.9-32.7-26.8-8.9-17.8-20.8-29.7-35.7-47.6 5.9-5.9 11.9-14.9 17.8-23.8v-5.9c-8.9-14.9-14.9-32.7-5.9-50.5-11.9-23.8 5.9-47.6 3-71.3-3-23.8-3-50.5 0-74.3 3-35.7 5.9-71.3 5.9-110 5.9-8.9 11.9-17.8 17.8-26.8 8.9-3 17.8-3 26.8-5.9 17.8 5.9 32.7 14.9 47.6 14.9 20.8 0 35.7 8.9 50.5 20.8 5.9 23.8-17.8 20.8-26.8 35.7 17.8 29.7 14.9 59.4 8.9 92.1-3 8.9-3 17.8-3 26.8l-11.9 80.3c-3 17.8-3 38.6-3 59.4 20.8 0 35.7 14.9 50.5 26.8 32.7 29.7 56.5 68.4 83.2 101.1 8.9 8.9 14.9 17.8 20.8 26.8 3 5.9 11.9 8.9 11.9 11.9 8.9 35.7 44.6 50.5 65.4 83.2 56.5-86.2 104-172.4 160.5-255.6-8.9-5.9-14.9-11.9-20.8-17.8l3-104c5.9-41.6 17.8-83.2 5.9-124.8 8.9-14.9-14.9-17.8-8.9-32.7 11.9-20.8 29.7-29.7 50.5-29.7h101.1c11.9 14.9 26.8 32.7 38.6 47.6-5.9 32.7-5.9 65.4-14.9 98.1-8.9 38.6-5.9 74.3-5.9 113 0 20.8-14.9 35.7-20.8 53.5 8.9 5.9 26.8-3 32.7 14.9-11.9 32.7-35.7 62.4-59.4 92.1-26.8 35.7-53.5 71.3-83.2 104-17.8 20.8-38.6 38.6-59.4 59.4-5.9 5.9-11.9 11.9-14.9 17.8-14.9 26.8-26.8 53.5-41.6 83.2-5.9 11.9-11.9 23.8-11.9 35.7 0 38.6-20.8 77.3-3 118.9 3 5.9 3 11.9 0 17.8-8.9 14.9-5.9 32.7-5.9 47.6v252.7c0 20.8 3 44.6 5.9 65.4 3 26.8-8.9 50.5-14.9 74.3-3 8.9-11.9 17.8-26.8 14.9-35.7 0-71.3 3-107 5.9-5.9-11.9-8.9-17.8-14.9-29.7-8.9 0-23.8 0-38.6-3 3-26.8-8.9-53.5 11.9-80.3 15.2 14.6 21.1 17.6 24.1 20.6 0 11.9 0 23.8 3 32.7 2.9-11.9 11.8-23.8-3-32.7zM3917.7 2598.8c-5.9 5.9-8.9 11.9-14.9 17.8v98.1c5.9 3 11.9 5.9 17.8 5.9 3 14.9 5.9 29.7 8.9 47.6-3 5.9-5.9 11.9-11.9 20.8-5.9 0-8.9-3-17.8-5.9 3 23.8 5.9 44.6 8.9 65.4l11.9 74.3v11.9c14.9 29.7 0 50.5-14.9 74.3 5.9 11.9 8.9 23.8 14.9 35.7-14.9 23.8-38.6 26.8-59.4 29.7-14.9 3-23.8 8.9-32.7 14.9-14.9 0-29.7-3-41.6-3v-8.9c-8.9 3-17.8 3-29.7 5.9l-11.9-139.7c0-3-5.9-8.9-11.9-14.9 0-26.8 0-50.5 5.9-77.3 5.9-26.8 0-53.5 0-83.2v-65.4c3-44.6 5.9-92.1 11.9-136.7 3-29.7 5.9-62.4-3-95.1 0-3 0-5.9-3-8.9-3-35.7-5.9-71.3-5.9-113-68.4-62.4-136.7-127.8-199.2-202.1 3-17.8 0-35.7 0-53.5v-65.4c0-20.8 3-41.6 0-59.4-3-20.8 0-44.6 0-65.4v-65.4c0-20.8 5.9-41.6 14.9-59.4 32.7-8.9 65.4-14.9 98.1 0 17.8 29.7 8.9 65.4 11.9 98.1-5.9 3-8.9 5.9-14.9 11.9 8.9 62.4 14.9 127.8 23.8 193.2 11.9 11.9 23.8 23.8 35.7 32.7 41.6 41.6 80.3 89.2 130.8 124.8l8.9 11.9c20.8 5.9 32.7-5.9 41.6-17.8 23.8-32.7 50.5-65.4 80.3-95.1 11.9-11.9 20.8-26.8 29.7-35.7 3-17.8 5.9-29.7 8.9-44.6 3-11.9 3-23.8 0-35.7-11.9-50.5-14.9-101.1-14.9-154.6 0-8.9 0-17.8-3-23.8-5.9-26.8-5.9-26.8 11.9-44.6 41.6-5.9 86.2-11.9 130.8-17.8 0 11.9 3 20.8 3 29.7v228.9c0 20.8-5.9 38.6-8.9 62.4 8.9 8.9 14.9 23.8 11.9 32.7-32.7 41.6-59.4 77.3-86.2 113l-53.5 62.4c-20.8 23.8-44.6 47.6-65.4 74.3-11.9 14.9-14.9 29.7-14.9 50.5-2.9 53.5-2.9 107-2.9 163.5zm-151.6-371.5c3 0 3 3 5.9 3-2.9-.1-2.9-3-5.9-3l-5.9-5.9-5.9-5.9-5.9-5.9-5.9-5.9c-3 0-3-3-5.9-3 3 0 3 3 5.9 3l5.9 5.9 5.9 5.9 5.9 5.9s3 2.9 5.9 5.9zm-199.1-98.1c3 3 5.9 3 8.9 3v-3h-8.9zm332.9 636.1c-3-3-3 0-3 0s0 3 3 0zm184.3-648c-3-3-3 0-3 0h3zM1577.3 1426.8c-14.9 11.9-23.8 17.8-32.7 23.8-20.8-17.8-20.8-17.8-26.8-44.6-11.9 8.9-23.8 26.8-41.6 20.8-8.9-3-17.8-8.9-23.8-14.9-3-41.6-5.9-80.3-8.9-118.9-3-29.7-8.9-59.4-11.9-89.2-3-23.8 0-50.5 0-74.3-3-62.4-8.9-127.8-5.9-190.2 0-11.9 3-23.8 5.9-35.7 0-3 3-8.9 3-8.9-11.9-23.8-3-50.5-5.9-74.3-8.9-41.6-3-83.2-5.9-121.9 0-20.8 0-38.6 11.9-56.5 3-5.9 3-14.9 3-23.8-5.9 0-8.9 0-11.9 3-20.8-11.9 0-35.7-14.9-47.6-14.9-11.9-3-32.7-17.8-41.6 5.9-11.9 14.9-14.9 26.8-8.9 8.9-38.6-8.9-77.3 11.9-115.9-5.9-23.8-14.9-47.6-14.9-71.3-3-32.7-5.9-68.4 0-98.1 3-23.8 3-47.6 5.9-74.3 0-5.9-3-14.9-5.9-23.8 3-5.9 5.9-11.9 8.9-20.8-3-14.9-5.9-29.7-11.9-44.6 5.9-23.8 17.8-38.6 44.6-47.6 20.8 14.9 38.6 8.9 59.4-8.9 20.8 20.8 44.6 35.7 47.6 71.3 0 20.8 8.9 41.6 0 65.4-3 5.9 0 14.9 0 20.8 0 38.6-5.9 80.3-14.9 118.9-3 14.9 0 29.7 0 47.6-5.9 5.9-14.9 8.9-20.8 14.9 3 3 5.9 3 11.9 5.9 0 23.8 5.9 47.6-5.9 71.3-3 3-3 8.9-3 14.9 0 74.3-3 148.6 0 220 3 32.7 5.9 68.4 5.9 101.1 0 11.9-3 23.8-5.9 35.7v23.8c8.9 26.8 11.9 53.5 11.9 80.3v32.7c0 41.6 5.9 83.2 14.9 124.8v11.9c-3 41.6 8.9 80.3 14.9 121.9 5.9 44.6 17.8 86.2 26.8 127.8 59.4-5.9 118.9-8.9 175.4 0s115.9-8.9 172.4 11.9c3 14.9 5.9 26.8-5.9 38.6-3 3-3 5.9-3 8.9 8.9 20.8-5.9 32.7-8.9 50.5-122.1-11.9-241-11.9-354-11.9zM2229.1 1158.6c-6 3-8.9 5.9-14.9 11.9 20.7 53.5 17.6 110 44.3 166.5 44.6.1 86.2-2.8 130.8.2 35.7 3 74.3 3.1 110 12.1 17.8 3 41.6.1 62.4.1 3 6 5.9 11.9 8.9 20.8 5.9 3 11.9 3 14.9 6 8.9 17.9-3 29.7-9 44.6 5.9 26.8 2.9 32.7-20.9 32.7-32.7-.1-65.4-.1-101.1-.2-20.8 0-41.6-9-59.4-6.1-65.4 11.8-130.8 2.7-196.2 5.6-14.9 0-32.7 2.9-44.6-12-3-3-14.9 0-20.8 0-3-3-3-6-5.9-8.9-11.9 14.8-11.9 14.8-32.7 2.9 0-17.8-2.9-38.6.1-59.4 3-20.8.1-38.6 6.1-59.4 6-20.8.1-41.6.1-65.4.1-74.3.3-148.6.4-220-2.8-110-2.6-220-5.3-330 0-17.8-2.9-38.6.1-56.5 3-17.8.1-38.6.1-56.5 15-86.2 3.3-175.4 6.4-261.6 3.1-44.6 6.1-89.2 6.2-133.8 0-11.9-5.9-26.8-2.9-38.6 6-29.7-2.9-59.5 23.9-83.2 23.8 3 29.7 20.9 32.6 41.7 6-3 8.9-3 14.9-5.9 0-5.9-3-11.9-2.9-17.8 0-5.9 6-8.9 8.9-17.8h20.8c3 6 5.9 11.9 11.9 20.8-8.9 3-17.9 8.9-26.8 11.8 3 6 8.9 11.9 14.8 17.9 0 14.9-.1 29.7-.1 50.5 6-5.9 6-8.9 11.9-14.8 5.9 6 14.8 8.9 20.8 14.9 0 5.9 3 8.9 3 11.9 0 5.9 0 14.9 2.9 20.8 17.8 35.7 14.7 71.4 5.7 110v3c-3 35.7-6.1 71.3-6.1 104-3.1 56.5-.2 110-9.2 166.4-6 47.5-.2 92.1-6.2 136.7-9 59.4-3.2 115.9-6.3 172.4 0 8.9 2.9 20.8 5.9 29.7 0 5.9 3 11.9 2.9 17.8-11.9 29.7-9 59.4-6.1 86.2 5.9 32.7-.1 68.4 11.7 101.1-3 6.1-6 15-6 26.9zm-37.2-793.7c3 3 0 3 0 0zM1068.1 44.6c5.9 8.9 8.9 17.8 11.9 23.8 23.8 5.9 47.6 8.9 68.4 14.9 5.9 38.6-14.9 71.3-8.9 110 3 0 8.9-3 14.9-3 11.9 26.8 14.9 53.5 5.9 83.2-5.9 26.8-8.9 53.5-8.9 80.3 0 41.6 3 80.3-3 121.9-8.9 56.5-5.9 110-5.9 166.5l5.9 118.9c0 38.6-3 80.3 0 118.9 11.9 86.2 3 175.4 5.9 261.6 3 41.6 5.9 83.2 5.9 121.9v121.9l5.9 23.8c0 11.9 8.9 23.8-5.9 32.7 0 0 0 5.9-3 8.9-3 17.8-5.9 23.8-20.8 20.8-26.8-8.9-53.5-5.9-83.2-5.9-8.9-8.9-17.8-20.8-29.7-32.7-3-38.6-3-80.3-8.9-121.9-11.9-107-8.9-214-3-318.1 3-80.3 0-163.5 8.9-243.7-8.9-47.6 3-95.1-11.9-142.7-8.9-29.7-11.9-56.5 3-86.2 3-5.9 3-14.9 3-23.8v-110l-17.8-20.8v-8.9c0-3 3-3 3-5.9 3-47.6 5.9-95.1 5.9-139.7 0-14.9 0-26.8-3-41.6-3-14.9 3-32.7 5.9-50.5l3-17.8c3-20.8 14.9-35.7 35.7-35.7 14.8-18.1 17.8-21.1 20.8-21.1zm59.4 225.9c8.9-20.8 8.9-44.6 3-68.4 0 23.8 0 44.6-3 68.4zM3409.4 1840.5c-3-8.9-3-23.8 17.8-29.7 8.9 32.7 47.6 50.5 47.6 92.1-23.8-20.8-44.6-41.6-65.4-62.4zM2395.8 2390.8l-14.9 14.9c-8.9-3-17.8-5.9-26.8-11.9 5.9-26.8 23.8-14.9 41.6-17.8.1 5.8.1 11.8.1 14.8zM2149.8 1411.9c0-5.9 0-11.9 3-17.8h17.8v20.8c-8.9-3-14.9-3-20.8-3zM2006.4 2039.6c3 5.9 8.9 11.9 14.9 20.8l-23.8 3v-20.8c3-3 5.9-3 8.9-3zM2018.3 1804.8v17.8h-23.8c5.9-8.9 11.9-14.9 17.8-20.8.1 3 3 3 6 3zM2215.2 74.3c-3 3-6 8.9-11.9 11.9-3-6-8.9-8.9-14.8-17.9 11.9 0 17.8 0 23.8-2.9-.1 3-.1 5.9 2.9 8.9zM2580.1 2869.3c3-3 5.9-8.9 11.9-14.9 5.9 5.9 8.9 11.9 14.9 17.8-8.9 0-14.9 3-20.8 3-3 .1-3-2.9-6-5.9zM3659.1 2783.1c3 3 8.9 5.9 14.9 8.9l-14.9 14.9c-3-8.9-5.9-14.9-5.9-20.8 0 0 2.9-3 5.9-3zM2009.4 2031.1c8.9 0 14.9 0 26.8-3-5.9 8.9-8.9 14.9-11.9 20.8-6-5.9-9-11.9-14.9-17.8zM2381 2423.4c-5.9 0-11.9 3-20.8 3 2.9-17.8 11.8-14.8 20.8-3zM2455.3 2402.6c5.9 0 11.9 0 20.8-3-6 17.9-11.9 14.9-20.8 3zM2440.4 1891h23.8c-8.9 14.9-17.9 14.9-23.8 0zM2404.7 2429.4c-3 3-5.9 5.9-8.9 5.9s-5.9-3-5.9-5.9c0-3 3-5.9 5.9-5.9 3-3 6-.1 8.9 5.9zM2597.4 942.3c-3 3-5.9 5.9-8.9 5.9s-5.9-3-5.9-5.9 3-5.9 5.9-5.9c0-.1 3 2.9 8.9 5.9zM1117.7 2667.2c3 3 5.9 5.9 5.9 8.9s-3 5.9-5.9 5.9c-3 0-5.9-3-5.9-5.9-.1 0 2.9-3 5.9-8.9zM3498.8 29.7c-3 3-5.9 5.9-8.9 5.9s-5.9-3-5.9-5.9c3-3 3-5.9 5.9-5.9 2.9 0 5.9 3 8.9 5.9zM3584.8 2827.7v8.9h-3c0-3 0-5.9-3-8.9 3 3 6 3 6 0zM1102.8 1792.9h-8.9v-3c3 0 5.9 0 8.9-3v6zM3029 2708.8v8.9h-3c0-3 0-5.9-3-8.9h6zM2395.8 2390.8c3 3 3 5.9 5.9 11.9-3 0-3 0-5.9 3 3-6 0-9 0-14.9zM3044 29.7c2.9 3 0 3 0 0zM555.9 1085c-3 3-8.9 3-14.9 5.9v-23.8c8.9 8.9 11.9 14.9 14.9 17.9zM544 1132.5v-11.9h3c-.1 6-.1 8.9-3 11.9zM368.6 603.4v11.9h-3c0-5.9 0-8.9 3-11.9zM546.9 1108.7c0 3-2.9 3 0 0z"/></svg>