<svg xmlns="http://www.w3.org/2000/svg" viewBox="-3700.5 0 11562.3 2071.9" enable-background="new -3700.5 0 11562.3 2071.9"><path d="M-2797.8 0v69.4c28.6 16.4 53.1 28.6 77.7 44.9 8.1 0 24.5 4.1 40.8 4.1 0 53.1 8.1 102.1-8.1 155.3 4.1 8.1 12.2 16.4 20.5 28.6-8.1 53.1-8.1 110.4-20.5 163.4v20.5c0 53.1-8.1 102.1-20.5 151.2v4.1c-4.1 53.1-4.1 102.1-12.2 155.3-8.1 61.3-4.1 118.5-8.1 175.7 0 24.5-12.2 49.1-4.1 77.7 4.1 24.5 0 49.1-4.1 73.5-16.4 147.1-12.2 294.2-8.1 445.4 0 102.1 4.1 200.3 12.2 302.4 0 28.6 16.4 57.2 0 85.8-4.1 4.1 4.1 16.4 8.1 28.6-12.2 12.2-20.5 24.5-32.7 36.8-32.7-12.2-69.4 16.4-94-16.4-44.9-8.1-81.6 0-114.4 32.7-53.1-12.2-65.4-53.1-77.7-94-8.1-28.6-16.4-49.1-40.8-65.4-20.5-16.4-36.8-40.8-44.9-65.4-8.1-20.5-20.5-32.7-28.6-53.1-8.1-16.4-16.4-32.7-28.6-53.1-44.9 53.1-85.8 106.3-130.7 159.3-12.2 57.2-61.3 89.9-85.8 139 0 12.2 4.1 24.5 0 32.7-4.1 16.4-20.5 12.2-32.7 16.4-20.5 4.1-36.8 12.2-53.1 16.4-36.8-8.1-69.4-16.4-106.3-24.5-8.1-12.2-20.5-24.5-32.7-36.8 8.1-12.2 16.4-24.5 20.5-32.7-4.1-32.7-12.2-65.4-16.4-98-4.1-28.6-8.1-57.2-8.1-89.9-4.1-28.6-4.1-61.3-8.1-89.9-8.1-49.1-4.1-98-16.4-147.1v-16.4c-8.1-61.3-12.2-130.7-16.4-196.2-4.1-32.7-8.1-65.4-8.1-102.1-4.1-32.7-4.1-65.4-8.1-98-8.1-57.2 0-114.4-4.1-171.5 0-8.1 8.1-24.5-8.1-28.6v-216.5c4.1-8.1 8.1-16.4 8.1-24.5v-139c0-16.4 8.1-36.8 4.1-49.1-12.2-53.1 0-110.4 16.4-163.4 8.1-36.8 12.2-73.5 12.2-110.4v-49.1c0-24.5 12.2-49.1 32.7-57.2 44.9-16.4 89.9-24.5 134.8 0v24.5c-8.1 12.2-12.2 16.4-16.4 20.5 4.1 40.8 12.2 77.7 16.4 114.4 4.1 61.3 4.1 122.6 8.1 183.9 8.1 151.2-4.1 298.3 8.1 449.5 8.1 102.1 0 204.3 0 302.4 0 36.8-4.1 69.4 4.1 102.1 8.1 36.8 8.1 69.4 8.1 102.1 0 57.2 4.1 114.4 20.5 167.6 8.1 24.5 20.5 53.1 0 77.7-4.1 4.1 0 8.1 0 16.4 4.1 16.4 8.1 32.7 12.2 53.1 16.4-12.2 28.6-20.5 40.8-40.8 20.5-44.9 49.1-85.8 77.7-126.6 28.6-36.8 61.3-73.5 94-110.4 12.2 4.1 28.6 4.1 44.9 8.1 12.2-4.1 20.5-8.1 32.7-16.4 12.2 8.1 28.6 16.4 32.7 20.5 28.6 8.1 49.1 12.2 69.4 16.4 16.4 4.1 28.6 8.1 28.6 24.5s-12.2 24.5-28.6 24.5c-4.1 0-4.1 4.1-8.1 4.1 28.6 65.4 44.9 134.8 85.8 200.3 0-28.6 4.1-49.1 0-69.4-8.1-20.5 0-36.8 4.1-49.1 12.2-44.9 20.5-89.9 16.4-139 4.1 0 12.2 0 20.5 4.1v81.6c8.1-12.2 8.1-20.5 8.1-32.7-4.1-61.3-8.1-118.5-8.1-179.8 0-36.8-12.2-73.5 0-110.4 0-4.1 0-8.1-4.1-12.2-12.2-28.6-8.1-53.1-4.1-81.6 0-4.1 4.1-12.2 4.1-12.2-20.5-32.7 0-65.4-8.1-98-4.1-32.7-4.1-69.4 0-102.1 8.1-57.2 8.1-114.4 8.1-167.6 0-12.2 4.1-24.5 0-32.7-20.5-24.5 4.1-49.1-8.1-73.5 20.5-53.1 4.1-110.4 8.1-163.4 0-12.2-4.1-28.6 4.1-36.8 8.1-16.4 4.1-24.5 0-40.8-8.1-36.8-8.1-73.5-12.2-106.3 12.2 0 24.5-4.1 28.6-4.1 8.1-36.8 16.4-69.4 24.5-102.1 4.1-24.5 12.2-49.1 12.2-77.7 0-49.1-4.1-98 12.2-143 20.2-.5 36.6-.5 57.1-.5zm-608.8 1785.6c0-4.1 4.1-4.1 4.1-8.1-.1 3.9-.1 8.1-4.1 8.1l-8.1 8.1c-16.4 8.1-28.6 20.5-28.6 40.8-4.1 4.1-4.1 8.1-8.1 16.4 0 0 4.1 0 4.1 4.1 0-4.1 0-12.2 4.1-16.4 16.4-8.1 28.6-20.5 28.6-40.8 3.9-4.1 8-8.2 8-12.2zm518.9-1434.3c-4.1-4.1-4.1 0-4.1 0h4.1zM1378.6 972.4c-24.5 4.1-40.8 4.1-61.3 8.1-12.2 0-24.5 4.1-36.8 4.1h-187.9c-61.3 0-126.6 4.1-187.9 8.1 0 16.4 8.1 32.7 4.1 40.8-12.2 28.6-8.1 53.1-8.1 81.6v200.3c0 32.7-8.1 65.4 0 98 4.1 32.7 0 69.4 0 106.3-12.2 4.1-24.5 12.2-40.8 20.5 20.5 134.8 8.1 273.8 12.2 412.6-8.1 12.2-16.4 28.6-44.9 28.6-8.1-12.2-20.5-24.5-36.8-40.8-24.5 4.1-40.8 32.7-73.5 16.4-8.1-24.5-28.6-44.9-28.6-73.5 0-16.4-8.1-32.7-4.1-49.1 12.2-24.5 8.1-53.1 8.1-77.7v-584.3l-40.8-24.5c8.1-20.5 16.4-36.8 20.5-53.1-4.1-16.4-12.2-32.7-16.4-53.1 4.1-8.1 12.2-28.6 20.5-32.7 32.7-16.4 24.5-44.9 24.5-73.5 0-8.1-8.1-16.4-8.1-20.5 16.4-32.7 4.1-69.4 8.1-102.1 4.1-24.5 8.1-53.1 16.4-81.6-8.1-4.1-16.4-12.2-24.5-20.5v-8.1c44.9-61.3 98-122.6 130.7-192 4.1-8.1 12.2-20.5 20.5-28.6 16.4-12.2 24.5-32.7 36.8-49.1 40.8-61.3 89.9-114.4 122.6-179.8l12.2-12.2c8.1-8.1 20.5-16.4 28.6-28.6 8.1-16.4 12.2-36.8 32.7-49.1 16.4-12.2 32.7-24.5 49.1-40.8 12.2 4.1 24.5 12.2 32.7 16.4 20.5-4.1 44.9-12.2 65.4-16.4 8.1 8.1 20.5 16.4 24.5 24.5-4.1 24.5-8.1 44.9-8.1 61.3 36.8 73.5 94 130.7 143 192 16.4 20.5 28.6 40.8 36.8 69.4 8.1 32.7 28.6 61.3 44.9 89.9 4.1 4.1 8.1 8.1 8.1 12.2 24.5 53.1 65.4 94 98 147.1-8.1 12.2-12.2 20.5-20.5 32.7-8.1 16.4-16.4 32.7-16.4 49.1-4.1 20.5-4.1 44.9-8.1 65.4-4.1 24.5 4.1 49.1 4.1 77.7 0 16.4 4.1 28.6 4.1 44.9v114.4c0 20.5 4.1 40.8-8.1 61.3-8.1 16.4 16.4 36.8 0 53.1 12.2 24.5 0 49.1 0 73.5 0 24.5-4.1 53.1 0 77.7 12.2 61.3 4.1 122.6 8.1 183.9 0 24.5 8.1 49.1 8.1 77.7 4.1 24.5 4.1 49.1 8.1 77.7 8.1 36.8 4.1 77.7 4.1 118.5s0 77.7 20.5 110.4c-8.1 24.5-12.2 49.1-36.8 65.4-12.2-12.2-28.6-24.5-44.9-36.8l-65.4 12.2c-32.7-24.5-44.9-49.1-40.8-94 4.1-61.3-12.2-126.6-12.2-187.9-4.1-57.2 4.1-118.5-4.1-175.7-12.2-89.9-4.1-179.8-8.1-269.7 0-20.5-4.1-44.9 8.1-65.4 4.1-4.1 0-12.2 0-20.5-4.1-32.7-12.2-65.4-8.1-94 15.9-28.6 15.9-57.2 15.9-98.1zm-527 433.1c-4.1 0-4.1-4.1-8.1-4.1-.2.1 4 .1 8.1 4.1 4.1 0 4.1 4.1 8.1 4.1-4.1-4.1-8.1-4.1-8.1-4.1zm16.4-633.3c12.2 0 20.5 4.1 28.6 4.1 44.9 0 94-4.1 139-8.1 94-8.1 192-8.1 286-12.2h57.2c-12.2-36.8-32.7-57.2-49.1-81.6-40.8-57.2-77.7-118.5-122.6-171.5-16.4-20.5-32.7-44.9-24.5-69.4-16.4-20.5-28.6-36.8-40.8-53.1-12.2 16.4-24.5 32.7-36.8 49.1-12.2 12.2-28.6 24.5-36.8 40.8l-126.6 183.9c-24.7 32.3-45.1 73.1-73.6 118zM496.1 118.5c-4.1 12.2-12.2 24.5-16.4 40.8 4.1 4.1 12.2 8.1 16.4 12.2 20.5 20.5 28.6 32.7 16.4 57.2-8.1 16.4-12.2 36.8-16.4 53.1-4.1 24.5-20.5 44.9-36.8 65.4l-49.1 61.3-171.5 228.9c-36.8 53.1-69.4 106.3-106.3 159.3-8.1 12.2-16.4 28.6-8.1 40.8 24.5 44.9 28.6 98 44.9 147.1 24.5 65.4 40.8 130.7 61.3 196.2 16.4 57.2 28.6 110.4 36.8 167.6 0 8.1 4.1 12.2 4.1 16.4 32.7 61.3 44.9 130.7 61.3 200.3 24.5 110.4 65.4 216.5 118.5 318.8 8.1 12.2 12.2 24.5 20.5 40.8v12.2l-24.5 28.6c-24.5 0-32.7-12.2-36.8-24.5l-28.6 24.5c-28.6-16.4-61.3-32.7-89.9-53.1-12.2 4.1-24.5 12.2-40.8 16.4-36.8-20.5-44.9-53.1-49.1-85.8-16.4-77.7-32.7-151.2-57.2-228.9-24.5-73.5-49.1-147.1-73.5-216.5-16.4-44.9-24.5-94-32.7-143-8.1-36.8-12.2-73.5-20.5-114.4 0-8.1-4.1-16.4-8.1-20.5-12.2-20.5-20.5-44.9-20.5-69.4 0-24.5-8.1-44.9-16.4-69.4-40.8 8.1-77.7 12.2-118.5-4.1-4.1 8.1-12.2 16.4-8.1 20.5 12.2 16.4-4.1 32.7-4.1 44.9 0 44.9-8.1 89.9-16.4 134.8-8.1 28.6-4.1 57.2 0 85.8 8.1 61.3 12.2 73.5 0 134.8-4.1 12.2 0 24.5 0 32.7v167.6c0 36.8-12.2 77.7-8.1 114.4 8.1 57.2 4.1 114.4 16.4 167.6 8.1 28.6 0 53.1-24.5 77.7-36.8-4.1-77.7-12.2-114.4 12.2l-36.8-36.8v-335.1c0-36.8 4.1-73.5 12.2-110.4 4.1-20.5 4.1-40.8 8.1-61.3 20.5-208.4 4.1-420.9 12.2-629.3 0-24.5 8.1-49.1 8.1-69.4 4.1-20.5-4.1-44.9 8.1-65.4 4.1-4.1 0-8.1 0-16.4 4.1-69.4 8.1-143 12.2-212.5l4.1-40.8c0-24.5 8.1-44.9 4.1-69.4-16.4-61.3 8.1-114.4 24.5-171.5 0-8.1 4.1-16.4 8.1-24.5 4.1-12.2 12.2-24.5 20.5-32.7 16.4-16.4 36.8-8.1 57.2-16.4 16.4-8.1 12.2 28.6 28.6 12.2 4.1 24.5 28.6 36.8 53.1 53.1 16.4 36.8-4.1 77.7 0 118.5 0 16.4-8.1 32.7-8.1 53.1 0 40.8-8.1 81.6-16.4 122.6 0 4.1 0 8.1-4.1 12.2-4.1 44.9 0 89.9-12.2 134.8-12.2 53.1 0 106.3-16.4 159.3-8.1 24.5 0 53.1 0 77.7 44.9-20.5 44.9-20.5 89.9-8.1 36.8-49.1 77.7-94 110.4-143 49.1-73.5 94-151.2 147.1-228.9 44.9-65.4 85.8-130.7 134.8-196.2 28.6-40.8 61.3-81.6 94-122.6 8.4-28.6 32.8-28.6 57.4-4.1zM-1781.8 1961.2c-20.5 16.4-32.7 24.5-44.9 32.7-28.6-24.5-28.6-24.5-36.8-61.3-16.4 12.2-32.7 36.8-57.2 28.6-12.2-4.1-24.5-12.2-32.7-20.5-4.1-57.2-8.1-110.4-12.2-163.4-4.1-40.8-12.2-81.6-16.4-122.6-4.1-32.7 0-69.4 0-102.1-4.1-85.8-12.2-175.7-8.1-261.4 0-16.4 4.1-32.7 8.1-49.1 0-4.1 4.1-12.2 4.1-12.2-16.4-32.7-4.1-69.4-8.1-102.1-12.2-57.2-4.1-114.4-8.1-167.6 0-28.6 0-53.1 16.4-77.7 4.1-8.1 4.1-20.5 4.1-32.7-8.1 0-12.2 0-16.4 4.1-28.6-16.4 0-49.1-20.5-65.4-20.5-16.4-4.1-44.9-24.5-57.2 8.1-16.4 20.5-20.5 36.8-12.2 12.2-53.1-12.2-106.3 16.4-159.3-8.1-32.7-20.5-65.4-20.5-98-4.1-44.9-8.1-94 0-134.8 4.1-32.7 4.1-65.4 8.1-102.1 0-8.1-4.1-20.5-8.1-32.7 4.1-8.1 8.1-16.4 12.2-28.6-4.1-20.5-8.1-40.8-16.4-61.3 8.1-32.7 24.5-53.1 61.3-65.4 28.6 20.5 53.1 12.2 81.6-12.2 28.6 28.6 61.3 49.1 65.4 98 0 28.6 12.2 57.2 0 89.9-4.1 8.1 0 20.5 0 28.6 0 53.1-8.1 110.4-20.5 163.4-4.1 20.5 0 40.8 0 65.4-8.1 8.1-20.5 12.2-28.6 20.5 4.1 4.1 8.1 4.1 16.4 8.1 0 32.7 8.1 65.4-8.1 98-4.1 4.1-4.1 12.2-4.1 20.5 0 102.1-4.1 204.3 0 302.4 4.1 44.9 8.1 94 8.1 139 0 16.4-4.1 32.7-8.1 49.1v32.7c12.2 36.8 16.4 73.5 16.4 110.4v44.9c0 57.2 8.1 114.4 20.5 171.5v16.4c-4.1 57.2 12.2 110.4 20.5 167.6 8.1 61.3 24.5 118.5 36.8 175.7 81.6-8.1 163.4-12.2 241.1 0 77.7 12.2 159.3-12.2 237 16.4 4.1 20.5 8.1 36.8-8.1 53.1-4.1 4.1-4.1 8.1-4.1 12.2 12.2 28.6-8.1 44.9-12.2 69.4-167.9-16.7-331.3-16.7-486.6-16.7zM-950.9 1592.6c-8.2 4.1-12.2 8.1-20.5 16.4 28.5 73.5 24.2 151.2 60.9 228.9 61.3.1 118.5-3.8 179.8.3 49.1 4.1 102.1 4.3 151.2 16.6 24.5 4.1 57.2.1 85.8.1 4.1 8.2 8.1 16.4 12.2 28.6 8.1 4.1 16.4 4.1 20.5 8.2 12.2 24.6-4.1 40.8-12.4 61.3 8.1 36.8 4 44.9-28.7 44.9-44.9-.1-89.9-.1-139-.3-28.6 0-57.2-12.4-81.6-8.4-89.9 16.2-179.8 3.7-269.7 7.7-20.5 0-44.9 4-61.3-16.5-4.1-4.1-20.5 0-28.6 0-4.1-4.1-4.1-8.2-8.1-12.2-16.4 20.3-16.4 20.3-44.9 4 0-24.5-4-53.1.1-81.6 4.1-28.6.1-53.1 8.4-81.6 8.2-28.6.1-57.2.1-89.9.1-102.1.4-204.3.5-302.4-3.8-151.2-3.6-302.4-7.3-453.6 0-24.5-4-53.1.1-77.7 4.1-24.5.1-53.1.1-77.7 20.6-118.5 4.5-241.1 8.8-359.6 4.3-61.3 8.4-122.6 8.5-183.9 0-16.4-8.1-36.8-4-53.1 8.2-40.8-4-81.8 32.9-114.4 32.7 4.1 40.8 28.7 44.8 57.3 8.2-4.1 12.2-4.1 20.5-8.1 0-8.1-4.1-16.4-4-24.5 0-8.1 8.2-12.2 12.2-24.5h28.6c4.1 8.2 8.1 16.4 16.4 28.6-12.2 4.1-24.6 12.2-36.8 16.2 4.1 8.2 12.2 16.4 20.3 24.6 0 20.5-.1 40.8-.1 69.4l16.4-20.3c8.1 8.2 20.3 12.2 28.6 20.5 0 8.1 4.1 12.2 4.1 16.4 0 8.1 0 20.5 4 28.6 24.5 49.1 20.2 98.1 7.8 151.2v4.1c-4.1 49.1-8.4 98-8.4 143-4.3 77.7-.3 151.2-12.6 228.7-8.2 65.3-.3 126.6-8.5 187.9-12.4 81.6-4.4 159.3-8.7 237 0 12.2 4 28.6 8.1 40.8 0 8.1 4.1 16.4 4 24.5-16.4 40.8-12.4 81.6-8.4 118.5 8.1 44.9-.1 94 16.1 139-4.1 8.4-8.2 20.6-8.2 37zm-51.1-1091c4.1 4.1 0 4.1 0 0zM-2367.3 61.3c8.1 12.2 12.2 24.5 16.4 32.7 32.7 8.1 65.4 12.2 94 20.5 8.1 53.1-20.5 98-12.2 151.2 4.1 0 12.2-4.1 20.5-4.1 16.4 36.8 20.5 73.5 8.1 114.4-8.1 36.8-12.2 73.5-12.2 110.4 0 57.2 4.1 110.4-4.1 167.6-12.2 77.7-8.1 151.2-8.1 228.9 0 53.1 8.1 110.4 8.1 163.4 0 53.1-4.1 110.4 0 163.4 16.4 118.5 4.1 241.1 8.1 359.6 4.1 57.2 8.1 114.4 8.1 167.6v167.6l8.1 32.7c0 16.4 12.2 32.7-8.1 44.9 0 0 0 8.1-4.1 12.2-4.1 24.5-8.1 32.7-28.6 28.6-36.8-12.2-73.5-8.1-114.4-8.1-12.2-12.2-24.5-28.6-40.8-44.9-4.1-53.1-4.1-110.4-12.2-167.6-16.4-147.1-12.2-294.2-4.1-437.3 4.1-110.4 0-224.7 12.2-335-12.2-65.4 4.1-130.7-16.4-196.2-12.2-40.8-16.4-77.7 4.1-118.5 4.1-8.1 4.1-20.5 4.1-32.7v-151.2l-24.5-28.6v-12.2s4.1-4.1 4.1-8.1c4.1-65.4 8.1-130.7 8.1-192 0-20.5 0-36.8-4.1-57.2-4.1-20.5 4.1-44.9 8.1-69.4l4.1-24.5c4.1-28.6 20.5-49.1 49.1-49.1 20.3-24.9 24.4-29 28.6-29zm81.6 310.5c12.2-28.6 12.2-61.3 4.1-94 0 32.7 0 61.3-4.1 94zM3976.1 1940.8c0-8.1 0-16.4 4.1-24.5h24.5v28.6c-12.3-4.1-20.5-4.1-28.6-4.1zM-970 102.1c-4.1 4.1-8.2 12.2-16.4 16.4-4.1-8.2-12.2-12.2-20.3-24.6 16.4 0 24.5 0 32.7-4-.1 4.1-.1 8.1 4 12.2zM-444.6 1295.3c-4.1 4.1-8.1 8.1-12.2 8.1s-8.1-4.1-8.1-8.1 4.1-8.1 8.1-8.1c-.1-.2 4.1 3.9 12.2 8.1zM754.4 40.8c-4.1 4.1-8.1 8.1-12.2 8.1s-8.1-4.1-8.1-8.1c4.1-4.1 4.1-8.1 8.1-8.1s8.1 4.1 12.2 8.1zM129.3 40.8c3.9 4.1 0 4.1 0 0zM-2944.9 1491.4c-4.1 4.1-12.2 4.1-20.5 8.1v-32.7c12.3 12.2 16.4 20.5 20.5 24.6zM-2961.3 1556.7v-16.4h4.1c-.1 8.3-.1 12.3-4.1 16.4zM-3202.4 829.4v16.4h-4.1c0-8.1 0-12.3 4.1-16.4zM-2957.3 1524c0 4.1-4 4.1 0 0zM4003.7 680.4c4.1 4.1 44.9 57.2 49.1 57.2s4.1 4.1 8.1 4.1c4.1 0 4.1 4.1 12.2 12.2 4.1 49.1 4.1 106.3 8.1 163.4 8.1 53.1 4.1 110.4 16.4 163.4 4.1 12.2 4.1 24.5 0 32.7-12.2 69.4 4.1 139 0 208.4 0 28.6 4.1 61.3 8.1 89.9 4.1 28.6 4.1 61.3 8.1 89.9 4.1 53.1 24.5 106.3 8.1 163.4-4.1 12.2 0 32.7 4.1 44.9 4.1 16.4 8.1 28.6 20.5 53.1 0 12.2 4.1 32.7-16.4 53.1-8.1 8.1-12.2 20.5-4.1 36.8 4.1 8.1-4.1 16.4-4.1 28.6 4.1 4.1 8.1 12.2 16.4 16.4v8.1c-8.1 12.2-12.2 28.6-20.5 40.8-8.1 12.2-16.4 24.5-32.7 32.7-20.5 8.1-32.7 28.6-49.1 44.9-20.5 0-20.5-20.5-24.5-36.8-40.8 0-61.3-28.6-77.7-61.3-4.1-8.1-8.1-24.5-4.1-32.7 16.4-40.8 0-81.6 8.1-118.5-12.2-8.1-20.5-16.4-28.6-20.5v-12.2c12.2-24.5 20.5-40.8 12.2-73.5-12.2-36.8-12.2-77.7-12.2-114.4 0-44.9-4.1-89.9 0-139 4.1-85.8-16.4-171.5-12.2-257.5-16.4-44.9-12.2-89.9 0-134.8 4.1-12.2 0-24.5 0-44.9-57.2 4.1-110.4-8.1-167.6 8.1h-8.1c-73.5 4.1-143 8.1-216.5 8.1h-106.3c0 12.2-4.1 24.5-4.1 32.7 0 81.6-4.1 167.6 0 249.2 8.1 106.3 8.1 212.5 8.1 314.6 20.5 49.1 4.1 106.3 16.4 159.3 8.1 28.6-4.1 61.3-8.1 89.9 0 12.2-4.1 20.5-8.1 32.7-8.1 20.5-12.2 44.9-24.5 61.3-16.4 20.5-44.9 28.6-69.4 40.8-12.2 8.1-28.6 8.1-49.1 8.1-8.1-16.4-16.4-28.6-20.5-44.9-12.2-40.8-24.5-81.6-20.5-122.6 4.1-53.1 0-106.3 0-163.4 0-126.6 16.4-253.3 8.1-379.9v-49.1c-8.1-16.4-16.4-24.5-16.4-65.4-4.1-65.4-4.1-126.6 0-192 0-20.5 8.1-40.8 12.2-57.2-16.4-12.2-36.8-20.5-40.8-44.9 16.4-24.5 32.7-53.1 53.1-77.7 53.1-61.3 73.5-139 110.4-204.3 12.2-24.5 24.5-53.1 32.7-77.7 32.7-69.4 61.3-139 94-204.3l61.3-130.7c8.1-20.5 16.4-36.8 20.5-61.3 12.2 0 24.5 4.1 40.8 4.1 8.1-20.5 28.6-12.2 49.1-12.2 20.5 28.6 36.8 61.3 61.3 94 32.7 4.1 49.1 28.6 69.4 53.1 8.1 12.2 16.4 24.5 24.5 36.8 12.2 20.5 28.6 40.8 57.2 49.1 12.2 16.4 20.5 32.7 28.6 44.9-4.1 8.1-4.1 12.2-12.2 20.5 8.1 12.2 20.5 28.6 32.7 36.8 16.4 8.1 20.5 16.4 28.6 28.6 28.6 53.1 61.3 106.3 94 155.3v53.1c-7.7 12.7-15.8 8.6-24.1 8.6-20.5-49.1-53.1-89.9-85.8-134.8-4.1 4.1-8.1 8.1-8.1 12.2 20.5 32.7 44.9 69.4 65.4 106.3 4.1 8.1 12.3 16.3 28.5 16.3zm-159.3-245.2l-8.1-8.1c-4.1-8.1-8.1-12.2-8.1-20.5l-8.1-8.1-8.1-8.1-8.1-8.1c0-16.4-4.1-24.5-20.5-28.6l-8.1-8.1c-4.1-8.1-8.1-12.2-8.1-20.5l-8.1-8.1c-16.4-16.4-16.4-24.5-20.5-28.6l-8.1-8.1c-8.1-36.8-32.7-53.1-65.4-61.3l65.4 61.3 8.1 8.1c4.1 8.1 8.1 12.2 8.1 20.5l8.1 8.1c4.1 8.1 8.1 12.2 8.1 20.5l8.1 8.1c0 16.4 4.1 24.5 20.5 28.6l8.1 8.1 8.1 8.1 8.1 8.1c4.1 8.1 8.1 12.2 8.1 20.5 16.4 8.1 16.4 12.2 20.5 16.2 4.1 0 4.1 4.1 8.1 4.1-4-4.1-4-4.1-8.1-4.1zm40.8 57.2l-8.1-8.1c0-4.1 0-12.2-4.1-16.4-4.1 0-4.1 0-8.1 4.1 4.1 4.1 4.1 8.1 8.1 16.4 4.1-4.1 8.3 0 12.2 4 4.1 8.1 8.1 12.2 8.1 20.5 4.1 0 4.1 4.1 8.1 4.1-4.1 0-4.1-4.1-8.1-4.1-3.9-8.2-3.9-12.3-8.1-20.5zm-61.1 20.5c4.1 0 4.1 4.1 8.1 4.1 0 0-4.1-4.1-8.1-4.1-4.1-8.1-8.1-12.2-8.1-20.5-4.1-8.1-8.1-12.2-8.1-20.5-4.1 0-4.1-4.1-8.1-4.1 4.1 0 4.1 4.1 8.1 4.1 4.1 8.1 8.1 12.2 8.1 20.5 3.9 8.2 8.1 12.3 8.1 20.5zm20.3 28.5c-4.1 0-4.1-4.1-8.1-4.1 4 0 8.1 4.1 8.1 4.1 4.1 8.1 8.1 12.2 8.1 20.5 4.1 0 4.1 4.1 8.1 4.1-4.1 0-4.1-4.1-8.1-4.1.2-8.2-4-12.2-8.1-20.5zm-57.2-106.2c-4.1 0-4.1-4.1-8.1-4.1 4 .1 4 .1 8.1 4.1 0 4.1 0 12.2 4.1 16.4 4.1 0 4.1 0 8.1-4.1-8-4.1-8-8.2-12.2-12.3zm-322.7 371.8c20.5 0 44.9 4.1 65.4 0 36.8-12.2 69.4-8.1 106.3-8.1h130.7c36.8 0 69.4-8.1 106.3-12.2-8.1-16.4-8.1-32.7-16.4-44.9-20.5-36.8-32.7-81.6-65.4-110.4-36.8-32.7-65.4-69.4-81.6-118.5-12.2-28.6-32.7-57.2-53.1-94-24.5 40.8-49.1 73.5-69.4 110.4-53.4 85.7-86.1 179.7-122.8 277.7zm473.9-118.5c-4.1 12.2-8.1 16.4-16.4 28.6h28.6c-4.1-12.2-8-16.3-12.2-28.6zm36.7 65.5h4.1v-32.7h-4.1v32.7zm-212.3-363.8zm147 253.4zm12.3 20.5c-4.1-4.1-4.1 0-4.1 0h4.1zm-49.1-77.7zm-102.1-179.8zM6414.4 157.4c20.5-20.5 40.8-40.8 57.2-61.3 20.5-4.1 40.8-12.2 65.4-16.4 8.1 12.2 16.4 24.5 20.5 40.8 8.1-4.1 16.4-4.1 20.5-8.1 24.5 12.2 24.5 36.8 24.5 57.2 57.2 77.7 130.7 143 196.2 212.5 12.2 12.2 24.5 28.6 32.7 49.1 12.2 24.5 32.7 49.1 49.1 73.5 12.2 16.4 28.6 36.8 40.8 53.1 8.1 8.1 12.2 24.5 16.4 36.8-12.2 8.1-20.5 16.4-28.6 20.5 0 12.2 8.1 24.5 4.1 32.7-28.6 32.7-20.5 73.5-16.4 106.3 8.1 40.8 4.1 81.6 8.1 122.6 0 32.7-4.1 65.4 8.1 98 4.1 12.2 0 32.7-4.1 44.9-12.2 24.5-12.2 40.8-4.1 69.4 8.1 40.8 8.1 85.8 12.2 130.7 0 40.8 4.1 77.7 0 118.5-8.1 53.1-12.2 102.1-8.1 155.3 8.1 61.3 8.1 126.6 8.1 187.9 0 12.2 4.1 24.5 8.1 36.8 20.5 40.8 4.1 77.7-20.5 110.4 24.5 4.1 36.8 24.5 49.1 44.9-12.2 32.7-28.6 65.4-36.8 89.9-32.7 12.2-53.1 20.5-81.6 28.6-28.6-4.1-28.6-44.9-57.2-53.1v-40.8c0-49.1 0-98-16.4-147.1v-16.4c-4.1-73.5-4.1-151.2-12.2-224.7-8.1-94-12.2-183.9-8.1-277.8 8.1-98 8.1-196.2 8.1-298.3 0-20.5 8.1-40.8 12.2-65.4h-416.8c-28.6 0-53.1 4.1-85.8 8.1v44.9c0 85.8 8.1 171.5-4.1 253.3-8.1 77.7-4.1 155.3-8.1 232.9 0 36.8 8.1 77.7 12.2 110.4-8.1 12.2-16.4 20.5-20.5 28.6 4.1 65.4 4.1 130.7 8.1 192 4.1 32.7 20.5 65.4 28.6 98-8.1 24.5-16.4 44.9-28.6 73.5-12.2 8.1-36.8 16.4-53.1 24.5-20.5 8.1-36.8 20.5-57.2 28.6-28.6-20.5-40.8-53.1-44.9-89.9-8.1-61.3-4.1-126.6-20.5-187.9-4.1-12.2 0-24.5 0-40.8v-445.4c0-77.7 8.1-159.3 12.2-237 0-16.4-4.1-32.7-4.1-53.1v-143c0-12.2 4.1-28.6-4.1-36.8-12.2-20.5-4.1-36.8 4.1-53.1 12.2-20.5 12.2-36.8 4.1-61.3-4.1-12.2-4.1-28.6 4.1-36.8 20.5-16.4 4.1-44.9 28.6-57.2-4.1-4.1-4.1-12.2-8.1-20.5 8.1-4.1 16.4-4.1 20.5-4.1 20.5-32.7 36.8-65.4 57.2-89.9 36.8-44.9 65.4-94 98-143 20.5-32.7 40.8-61.3 65.4-89.9 16.5-12 32.8-28.3 65.5-16.1zm322.8 502.5c4.1 0 4.1 4.1 8.1 4.1-4 .1-4-4.1-8.1-4.1 4.1-24.5-20.5-32.7-28.6-49.1-16.4-32.7-32.7-69.4-57.2-102.1-44.9-61.3-94-118.5-139-179.8l-28.6-28.6c-12.2 12.2-20.5 24.5-28.6 36.8-32.7 32.7-65.4 61.3-94 94-16.4 16.4-32.7 32.7-40.8 53.1-8.1 16.4-16.4 28.6-28.6 44.9-40.8 53.1-44.9 69.4-49.1 118.5l49.1-4.1c77.7 4.1 159.3-4.1 237 8.1 69.6 12.5 139 8.3 208.4 8.3zm-600.6-122.6h-8.1c0 8.1 4.1 12.2 4.1 20.5h4.1c-.1-8.1-.1-16.4-.1-20.5zm188 188.1c0-4.2-4.2-4.2 0 0-4.1-4.1-4.1 0-4.1 0h4.1zM5172.4 1951.1c-4.1-24.5-8.1-40.8-8.1-61.3 0-16.4 4.1-32.7 4.1-44.9v-343.2c0-57.2 8.1-110.4 16.4-167.6 8.1-49.1 8.1-102.1-4.1-151.2-4.1-12.2-4.1-24.5-4.1-36.8v-461.7c0-53.1 8.1-110.4 8.1-163.4 0-12.2 0-28.6-4.1-36.8-24.5-44.9-16.4-94-8.1-143 4.1-12.2 4.1-20.5 4.1-32.7v-94c16.4-16.4 28.6-36.8 49.1-40.8l32.7-49.1c24.5 4.1 49.1 12.2 73.5 16.4 20.5 24.5 28.6 49.1 12.2 81.6-8.1 12.2-4.1 28.6 8.1 40.8 24.5 32.7 28.6 69.4 20.5 106.3-4.1 24.5 0 53.1 0 77.7v220.6h69.4c16.4 0 36.8 4.1 53.1 8.1 8.1 0 12.2 4.1 20.5 0 32.7-12.2 65.4 8.1 98-8.1 20.5-8.1 49.1 0 77.7 0 20.5 8.1 32.7 44.9 65.4 20.5-8.1-32.7 16.4-69.4 4.1-106.3 16.4-32.7 8.1-69.4 8.1-106.3 0-53.1 4.1-102.1 20.5-151.2 4.1-12.2 0-28.6 0-44.9 0-24.5 0-49.1 20.5-69.4-8.1-8.1-16.4-16.4-24.5-28.6 4.1-12.2 12.2-20.5 16.4-32.7 28.6-4.1 53.1-4.1 81.6-8.1 20.5-4.1 16.4-36.8 49.1-32.7 20.5 20.5 24.5 49.1 24.5 77.7 0 32.7 4.1 65.4 0 98v208.39999999999998c0 24.5-8.1 44.9-4.1 69.4 4.1 24.5-4.1 53.1-4.1 77.7 0 24.5-4.1 49.1 0 73.5 20.5 89.9 12.2 183.9 8.1 273.8-12.2 163.4-4.1 326.9-8.1 490.3 0 69.4 0 139 12.2 208.4 8.1 44.9 8.1 89.9 8.1 134.8 0 32.7 8.1 69.4-16.4 98 8.1 28.6-8.1 49.1-24.5 65.4-28.6 4.1-53.1 8.1-81.6 16.4-12.2-16.4-24.5-32.7-32.7-44.9-24.5-147.1-4.1-286-16.4-429-8.1-126.6-4.1-253.3-8.1-375.9 0-32.7-8.1-65.4-12.2-98-8.1-8.1-16.4-12.2-28.6-24.5 24.5-20.5 44.9-36.8 49.1-69.4 8.1 4.1 16.4 4.1 20.5 8.1 0-4.1 4.1-8.1 4.1-8.1-16.4-8.1-20.5-28.6-20.5-49.1-44.9 4.1-89.9-12.2-130.7 16.4-8.1 4.1-20.5 4.1-28.6 4.1-44.9 0-89.9 4.1-130.7-8.1-24.5-4.1-49.1 0-73.5 4.1 8.1 4.1 16.4 4.1 20.5 8.1 8.1 4.1 16.4 12.2 20.5 20.5-12.2 12.2-61.3 16.4-89.9 8.1-4.1 8.1-4.1 16.4-12.2 24.5l-20.5 20.5c16.4-4.1 24.5-4.1 36.8-8.1-8.1 16.4-16.4 24.5-24.5 36.8 8.1 12.2 16.4 28.6 28.6 49.1h-32.7c-4.1 65.4-8.1 130.7-8.1 196.2-4.1 94-8.1 183.9-12.2 277.8 8.1 12.2 16.4 20.5 20.5 28.6 0 24.5 8.1 49.1-12.2 61.3 0 16.4 4.1 24.5 4.1 36.8s-4.1 24.5 4.1 32.7c24.5 44.9 12.2 85.8 0 130.7-4.1 24.5-4.1 53.1-4.1 77.7 0 24.5-4.1 44.9-20.5 61.3-40.8 16.4-44.9-16.4-53.1-40.8-20.5-8.1-32.7-8.1-49.1 4.1-29.3 19.8-45.7 15.7-62-.6zm32.7-53.1zm28.6 12.2c-4.1-4.1-4.1 0-4.1 0h4.1zm625 40.9zM4293.9 186c16.4-24.5 36.8-16.4 57.2-16.4l4.1 24.5h8.1c20.5-12.2 36.8-16.4 61.3-12.2h371.8c49.1 0 98 8.1 151.2 8.1 12.2 0 28.6 8.1 32.7 16.4 28.6 32.7 57.2 65.4 81.6 102.1 12.2 16.4 8.1 28.6-8.1 49.1-36.8 4.1-77.7 8.1-118.5 8.1h-212.5c-53.1 0-110.4 8.1-163.4 16.4 24.5 4.1 49.1 12.2 73.5 16.4v12.2c-12.2 8.1-24.5 12.2-32.7 20.5-16.4 16.4-20.5 49.1-53.1 53.1-4.1 0 8.1 12.2-4.1 16.4-4.1 0 0 16.4 0 24.5 0 4.1-12.2 4.1-12.2 16.4-8.1 53.1-20.5 106.3-12.2 163.4-12.2 16.4-28.6 32.7-16.4 57.2 4.1 8.1-4.1 24.5-8.1 36.8-4.1 8.1-4.1 16.4 0 28.6 4.1 16.4 0 32.7 0 44.9 0 24.5-4.1 49.1 0 73.5 4.1 36.8 12.2 77.7 16.4 114.4 0 4.1-8.1 12.2-8.1 16.4-4.1 32.7-8.1 69.4-4.1 102.1 4.1 32.7 0 69.4 16.4 106.3 8.1 12.2 8.1 32.7 4.1 49.1-12.2 44.9-12.2 89.9 0 134.8v16.4c4.1 69.4 4.1 102.1 12.2 171.5 4.1 40.8 0 85.8 12.2 130.7h339.09999999999997c32.7 0 69.4 4.1 102.1 12.2 12.2 4.1 24.5 16.4 36.8 24.5-16.4 32.7-32.7 61.3-44.9 94 4.1 4.1 12.2 8.1 20.5 16.4-4.1 8.1-8.1 20.5-12.2 32.7h-245.1c8.1 8.1 16.4 12.2 20.5 16.4-8.1 32.7-36.8 16.4-53.1 24.5-12.2 24.5-40.8 24.5-65.4 36.8-28.6-8.1-57.2-12.2-89.9-12.2-36.8 4.1-77.7-8.1-122.6-12.2-4.1-8.1-16.4-24.5-28.6-40.8-40.8 0-65.4-24.5-81.6-61.3-4.1-8.1-8.1-16.4-8.1-20.5v-130.7c16.4-20.5-4.1-49.1 8.1-73.5 8.1-20.5 4.1-49.1-8.1-69.4-4.1-8.1 0-20.5 0-28.6 0-32.7 0-65.4-8.1-102.1-20.5-98-28.6-159.3-20.5-257.5 12.2-134.8 8.1-269.7 4.1-404.5 0-81.6-8.1-163.4-8.1-241.1 0-20.5 8.1-44.9 4.1-65.4-8.1-24.5 8.1-40.8 12.2-65.4 4.1-12.2 4.1-24.5 4.1-36.8-4.6-90.1-4.6-163.7-4.6-237.2zM2500.2 1836.7c-4.1-44.9 0-89.9 4.1-139 4.1-24.5-4.1-49.1-4.1-73.5-24.5-20.5-24.5-20.5 0-40.8-4.1-4.1-8.1-8.1-16.4-12.2v-237c0-28.6 8.1-61.3 12.2-94 0 0 4.1-4.1 8.1-4.1-4.1-65.4 8.1-130.7 16.4-192-85.8-98-167.6-196.2-257.5-302.4-16.4-4.1-32.7-12.2-44.9-36.8-12.2-24.5-28.6-40.8-49.1-65.4 8.1-8.1 16.4-20.5 24.5-32.7v-8.1c-12.2-20.5-20.5-44.9-8.1-69.4-16.4-32.7 8.1-65.4 4.1-98-4.1-32.7-4.1-69.4 0-102.1 4.1-49.1 8.1-98 8.1-151.2 8.1-12.2 16.4-24.5 24.5-36.8 12.2-4.1 24.5-4.1 36.8-8.1 24.5 8.1 44.9 20.5 65.4 20.5 28.6 0 49.1 12.2 69.4 28.6 8.1 32.7-24.5 28.6-36.8 49.1 24.5 40.8 20.5 81.6 12.2 126.6-4.1 12.2-4.1 24.5-4.1 36.8-4.1 36.8-12.2 73.5-16.4 110.4-4.1 24.5-4.1 53.1-4.1 81.6 28.6 0 49.1 20.5 69.4 36.8 44.9 40.8 77.7 94 114.4 139 12.2 12.2 20.5 24.5 28.6 36.8 4.1 8.1 16.4 12.2 16.4 16.4 12.2 49.1 61.3 69.4 89.9 114.4 77.7-118.5 143-237 220.6-351.3-12.2-8.1-20.5-16.4-28.6-24.5l4.1-143c8.1-57.2 24.5-114.4 8.1-171.5 12.2-20.5-20.5-24.5-12.2-44.9 16.4-28.6 40.8-40.8 69.4-40.8h139c16.4 20.5 36.8 44.9 53.1 65.4-8.1 44.9-8.1 89.9-20.5 134.8-12.2 53.1-8.1 102.1-8.1 155.3 0 28.6-20.5 49.1-28.6 73.5 12.2 8.1 36.8-4.1 44.9 20.5-16.4 44.9-49.1 85.8-81.6 126.6-36.8 49.1-73.5 98-114.4 143-24.5 28.6-53.1 53.1-81.6 81.6-8.1 8.1-16.4 16.4-20.5 24.5-20.5 36.8-36.8 73.5-57.2 114.4-8.1 16.4-16.4 32.7-16.4 49.1 0 53.1-28.6 106.3-4.1 163.4 4.1 8.1 4.1 16.4 0 24.5-12.2 20.5-8.1 44.9-8.1 65.4v347.4c0 28.6 4.1 61.3 8.1 89.9 4.1 36.8-12.2 69.4-20.5 102.1-4.1 12.2-16.4 24.5-36.8 20.5-49.1 0-98 4.1-147.1 8.1-8.1-16.4-12.2-24.5-20.5-40.8-12.2 0-32.7 0-53.1-4.1 4.1-36.8-12.2-73.5 16.4-110.4 21 19.7 29.1 23.8 33.2 27.9 0 16.4 0 32.7 4.1 44.9 4-16.3 16.3-32.7-4.1-44.9zM7554.4 1297.3c-8.1 8.1-12.2 16.4-20.5 24.5v134.8c8.1 4.1 16.4 8.1 24.5 8.1 4.1 20.5 8.1 40.8 12.2 65.4-4.1 8.1-8.1 16.4-16.4 28.6-8.1 0-12.2-4.1-24.5-8.1 4.1 32.7 8.1 61.3 12.2 89.9 4.1 32.7 12.2 69.4 16.4 102.1v16.4c20.5 40.8 0 69.4-20.5 102.1 8.1 16.4 12.2 32.7 20.5 49.1-20.5 32.7-53.1 36.8-81.6 40.8-20.5 4.1-32.7 12.2-44.9 20.5-20.5 0-40.8-4.1-57.2-4.1v-12.2c-12.2 4.1-24.5 4.1-40.8 8.1-4.1-65.4-12.2-126.6-16.4-192 0-4.1-8.1-12.2-16.4-20.5 0-36.8 0-69.4 8.1-106.3 8.1-36.8 0-73.5 0-114.4v-89.9c4.1-61.3 8.1-126.6 16.4-187.9 4.1-40.8 8.1-85.8-4.1-130.7 0-4.1 0-8.1-4.1-12.2-4.1-49.1-8.1-98-8.1-155.3-94-85.8-187.9-175.7-273.8-277.8 4.1-24.5 0-49.1 0-73.5v-89.9c0-28.6 4.1-57.2 0-81.6-4.1-28.6 0-61.3 0-89.9v-89.9c0-28.6 8.1-57.2 20.5-81.6 44.9-12.2 89.9-20.5 134.8 0 24.5 40.8 12.2 89.9 16.4 134.8-8.1 4.1-12.2 8.1-20.5 16.4 12.2 85.8 20.5 175.7 32.7 265.6 16.4 16.4 32.7 32.7 49.1 44.9 57.2 57.2 110.4 122.6 179.8 171.5 4.1 4.1 8.1 12.2 12.2 16.4 28.6 8.1 44.9-8.1 57.2-24.5 32.7-44.9 69.4-89.9 110.4-130.7 16.4-16.4 28.6-36.8 40.8-49.1 4.1-24.5 8.1-40.8 12.2-61.3 4.1-16.4 4.1-32.7 0-49.1-16.4-69.4-20.5-139-20.5-212.5 0-12.2 0-24.5-4.1-32.7-8.1-36.8-8.1-36.8 16.4-61.3 57.2-8.1 118.5-16.4 179.8-24.5 0 16.4 4.1 28.6 4.1 40.8v314.6c0 28.6-8.1 53.1-12.2 85.8 12.2 12.2 20.5 32.7 16.4 44.9-44.9 57.2-81.6 106.3-118.5 155.3-24.5 28.6-49.1 57.2-73.5 85.8-28.6 32.7-61.3 65.4-89.9 102.1-16.4 20.5-20.5 40.8-20.5 69.4-4.1 73.6-4.1 147.2-4.1 224.8zm-208.4-510.6c4.1 0 4.1 4.1 8.1 4.1-4-.1-4-4.1-8.1-4.1l-8.1-8.1-8.1-8.1-8.1-8.1-8.1-8.1c-4.1 0-4.1-4.1-8.1-4.1 4.1 0 4.1 4.1 8.1 4.1l8.1 8.1 8.1 8.1 8.1 8.1s4.1 3.9 8.1 8.1zm-273.7-134.9c4.1 4.1 8.1 4.1 12.2 4.1v-4.1h-12.2zm457.6 874.4c-4.1-4.1-4.1 0-4.1 0s0 4.1 4.1 0zm253.3-890.7c-4.1-4.1-4.1 0-4.1 0h4.1zM6855.7 255c-4.1-12.2-4.1-32.7 24.5-40.8 12.2 44.9 65.4 69.4 65.4 126.6-32.7-28.6-61.3-57.2-89.9-85.8zM5462.4 1011.4l-20.5 20.5c-12.2-4.1-24.5-8.1-36.8-16.4 8.1-36.8 32.7-20.5 57.2-24.5.1 8 .1 16.3.1 20.4zM4927.2 528.7c4.1 8.1 12.2 16.4 20.5 28.6l-32.7 4.1v-28.6c4.1-4.1 8-4.1 12.2-4.1zM4943.5 205.9v24.5h-32.7c8.1-12.2 16.4-20.5 24.5-28.6.1 4.1 4.1 4.1 8.2 4.1zM5715.8 1669.1c4.1-4.1 8.1-12.2 16.4-20.5 8.1 8.1 12.2 16.4 20.5 24.5-12.2 0-20.5 4.1-28.6 4.1-4.2.2-4.2-3.9-8.3-8.1zM7198.9 1550.7c4.1 4.1 12.2 8.1 20.5 12.2l-20.5 20.5c-4.1-12.2-8.1-20.5-8.1-28.6 0 0 4-4.1 8.1-4.1zM4931.3 517c12.2 0 20.5 0 36.8-4.1-8.1 12.2-12.2 20.5-16.4 28.6-8.2-8.2-12.3-16.4-20.4-24.5zM5442.1 1056.2c-8.1 0-16.4 4.1-28.6 4.1 4-24.4 16.2-20.3 28.6-4.1zM5544.2 1027.6c8.1 0 16.4 0 28.6-4.1-8.2 24.6-16.4 20.5-28.6 4.1zM5523.7 324.4h32.7c-12.2 20.5-24.6 20.5-32.7 0zM5474.7 1064.5c-4.1 4.1-8.1 8.1-12.2 8.1s-8.1-4.1-8.1-8.1c0-4.1 4.1-8.1 8.1-8.1 4-4.2 8.2-.2 12.2 8.1zM3705.6 1391.3c4.1 4.1 8.1 8.1 8.1 12.2s-4.1 8.1-8.1 8.1c-4.1 0-8.1-4.1-8.1-8.1-.2.1 4-4 8.1-12.2zM7096.8 1612v12.2h-4.1c0-4.1 0-8.1-4.1-12.2 4.1 4.1 8.2 4.1 8.2 0zM3685.1 189.6h-12.2v-4.1c4.1 0 8.1 0 12.2-4.1v8.2zM6332.8 1448.5v12.2h-4.1c0-4.1 0-8.1-4.1-12.2h8.2zM5462.4 1011.4c4.1 4.1 4.1 8.1 8.1 16.4-4.1 0-4.1 0-8.1 4.1 4.1-8.3 0-12.4 0-20.5z"/></svg>