<?xml version="1.0" encoding="utf-8"?>
<!-- Generator: Adobe Illustrator 18.0.0, SVG Export Plug-In . SVG Version: 6.00 Build 0)  -->
<!DOCTYPE svg PUBLIC "-//W3C//DTD SVG 1.1//EN" "http://www.w3.org/Graphics/SVG/1.1/DTD/svg11.dtd">
<svg version="1.1" id="Layer_1" xmlns="http://www.w3.org/2000/svg" xmlns:xlink="http://www.w3.org/1999/xlink" x="0px" y="0px"
	 viewBox="0 0 1 1" enable-background="new 0 0 1 1" xml:space="preserve">
<path fill="none" stroke="#231F20" stroke-width="1.000000e-02" stroke-miterlimit="10" d="M0,0.1c0,0.4,0,0.7,0,0.8c0,0,0,0,0,0
	c0.3,0.1,0.9,0,0.9,0c0,0,0,0,0,0l0-0.1c0,0,0,0,0,0l0,0c0,0,0,0,0,0c0,0,0-0.2,0-0.3s0-0.4,0-0.4c0,0,0,0,0,0C0.5,0,0,0.1,0,0.1
	C0,0.1,0,0.1,0,0.1z"/>
</svg>
