<?xml version="1.0" encoding="utf-8"?>
<!-- Generator: Adobe Illustrator 18.0.0, SVG Export Plug-In . SVG Version: 6.00 Build 0)  -->
<!DOCTYPE svg PUBLIC "-//W3C//DTD SVG 1.1//EN" "http://www.w3.org/Graphics/SVG/1.1/DTD/svg11.dtd">
<svg version="1.1" id="Layer_1" xmlns="http://www.w3.org/2000/svg" xmlns:xlink="http://www.w3.org/1999/xlink" x="0px" y="0px"
	 viewBox="0 0 350.1 289.7" enable-background="new 0 0 350.1 289.7" xml:space="preserve">
<g>
	<defs>
		<path id="SVGID_1_" d="M0.5,7.1c-3.2,131.2,9.3,252.5,10.7,265.3c0.1,0.7,0.5,1.2,1.2,1.4c97.4,28.6,313.1,10.3,331.7,8.4
			c0.9-0.1,1.5-0.8,1.5-1.7l4.5-25.8c0-0.6-0.5-1.1-1.1-1.1l-10-0.4c-1.2,0-2.2-1-2.2-2.2c0,0-1.8-61.7-1.8-103.4S336,7.1,336,7.1
			c0-0.9-0.7-1.6-1.6-1.7C194.2-6.2,18.3,4.2,2.1,5.4C1.2,5.5,0.5,6.2,0.5,7.1z"/>
	</defs>
	<clipPath id="SVGID_2_">
		<use xlink:href="#SVGID_1_"  overflow="visible"/>
	</clipPath>
	<g clip-path="url(#SVGID_2_)">
		
			<image overflow="visible" width="2000" height="1333" xlink:href="../../_site/images/schools/amor@2x.jpg"  transform="matrix(0.2394 0 0 0.2394 -81.8871 -18.0551)">
		</image>
	</g>
</g>
</svg>
